<svg id="Layer_1" data-name="Layer 1" xmlns="http://www.w3.org/2000/svg" viewBox="0 0 741.99 165.79"><defs><style>.cls-1{fill:#fff;}</style></defs><path class="cls-1" d="M84.49,134.27a51,51,0,1,1,51-51,51.09,51.09,0,0,1-51,51m0-100.69a49.66,49.66,0,1,0,49.66,49.66A49.72,49.72,0,0,0,84.49,33.58"/><path class="cls-1" d="M84.49,151a67.76,67.76,0,1,1,67.76-67.76A67.84,67.84,0,0,1,84.49,151m0-134.15a66.39,66.39,0,1,0,66.39,66.39A66.47,66.47,0,0,0,84.49,16.85"/><path class="cls-1" d="M39.19,125.83a12.89,12.89,0,0,1-1.45-1.45,3.21,3.21,0,0,1-.94-1.9,1.92,1.92,0,0,1,.7-1.55,2.13,2.13,0,0,1,1.6-.58,3.13,3.13,0,0,1,2,1.17,2.94,2.94,0,0,1,.31.41l1.81-1.58,1,1.13Zm1.3-3.13a2.42,2.42,0,0,0-.3-.41,1.12,1.12,0,0,0-1.68-.26c-.46.41-.46,1,0,1.54A2.26,2.26,0,0,0,39,124Z"/><path class="cls-1" d="M38.2,116.93l1.68-.59.9,1.28-6.65,2.16L33,118.15l4.29-5.53.94,1.34-1.11,1.4Zm-1.89-.74-.93,1.15c-.25.33-.59.71-.86,1v0c.38-.15.85-.36,1.23-.49l1.39-.49Z"/><polygon class="cls-1" points="30.79 114.68 30.07 113.35 34.82 110.76 33.55 108.42 34.67 107.82 36.66 111.49 30.79 114.68"/><polygon class="cls-1" points="27.95 109.19 27.36 107.8 32.35 105.7 31.32 103.25 32.49 102.75 34.11 106.6 27.95 109.19"/><rect class="cls-1" x="25.3" y="100.99" width="6.69" height="1.52" transform="translate(-30.28 13.99) rotate(-18.16)"/><path class="cls-1" d="M30.74,97l-2.67.63-3.36,3-.39-1.68,1.4-1c.43-.32.74-.54,1.13-.8v0c-.43,0-.85-.11-1.36-.2l-1.72-.28-.39-1.65,4.31,1.24,2.71-.64Z"/><path class="cls-1" d="M28,91.78l1.76.26.2,1.55L23,92.41l-.25-2,6.38-2.9.2,1.61-1.63.73Zm-1.34-1.54-1.36.59c-.37.17-.85.35-1.23.5v0c.41.05.92.08,1.32.14l1.46.22Z"/><path class="cls-1" d="M22.43,86.34l0-1.5,2.95,0v0c-.26-.14-.5-.29-.74-.44l-2.24-1.48,0-1.86,2.88,2.17L29,80.76l0,1.77-2.86,1.68.72.56,2.18,0,0,1.49Z"/><path class="cls-1" d="M22.5,79l.16-1.49,2.94.31v0c-.24-.17-.46-.35-.68-.53l-2.05-1.75.2-1.84,2.59,2.51,4.07-1.91-.19,1.76-3,1.31.63.65,2.17.23-.16,1.49Z"/><path class="cls-1" d="M28.65,71.24l1.56.86-.36,1.53-6-3.53.46-1.94,7-.47-.38,1.58-1.79.11Zm-.71-1.91-1.48.08c-.41,0-.92,0-1.33,0v0c.36.19.83.4,1.18.59l1.29.72Z"/><polygon class="cls-1" points="25.39 64.21 25.91 62.78 31 64.61 31.9 62.11 33.09 62.54 31.68 66.47 25.39 64.21"/><path class="cls-1" d="M33.34,58.22a3.75,3.75,0,0,0,1.16-1.28c.33-.61.26-1.07-.13-1.28s-.73,0-1.36.54c-.87.8-1.76,1.15-2.61.69-1-.55-1.33-1.8-.58-3.19a4.05,4.05,0,0,1,1.11-1.34l.91.87a3.25,3.25,0,0,0-.94,1.09c-.31.57-.2,1,.11,1.16s.72,0,1.42-.65c.94-.83,1.75-1,2.58-.58,1,.53,1.42,1.74.55,3.36a4.51,4.51,0,0,1-1.26,1.48Z"/><polygon class="cls-1" points="37.42 49.07 36.04 51.1 37.35 52 38.89 49.73 39.92 50.43 37.52 53.95 31.99 50.19 34.32 46.78 35.34 47.48 33.87 49.63 35.02 50.41 36.4 48.38 37.42 49.07"/><path class="cls-1" d="M35.77,45A14.85,14.85,0,0,1,37,43.35a3.4,3.4,0,0,1,1.81-1.3,1.7,1.7,0,0,1,1.47.44,1.76,1.76,0,0,1,.48,2l0,0a1.67,1.67,0,0,1,1.53.13c.71.33,1.51.74,1.79.81l-1,1.17a7.44,7.44,0,0,1-1.49-.65c-.76-.41-1.12-.33-1.52.13l-.3.34,2,1.71-1,1.14Zm3.17.73.39-.46c.48-.57.49-1.16,0-1.54s-1-.28-1.43.24a3.83,3.83,0,0,0-.41.56Z"/><path class="cls-1" d="M46.07,43.49,40,40.05l1.21-1.13,2.52,1.52c.71.43,1.38.84,2.07,1.35l0,0c-.42-.71-.81-1.43-1.16-2.15L43.29,37l1.17-1.09,2.9,6.43Z"/><rect class="cls-1" x="47.75" y="33.64" width="1.52" height="6.69" transform="translate(-12.49 37.51) rotate(-37.81)"/><path class="cls-1" d="M56.59,35.25a4.16,4.16,0,0,1-1.28,1.17,3.18,3.18,0,0,1-4.76-.9,3.42,3.42,0,0,1,1.15-5,4,4,0,0,1,1.54-.64l.39,1.17a3.28,3.28,0,0,0-1.2.48,2,2,0,0,0-.59,3,2,2,0,0,0,3,.67,3.48,3.48,0,0,0,.94-.87Z"/><polygon class="cls-1" points="60.25 30.43 58.04 31.53 58.75 32.95 61.22 31.73 61.77 32.84 57.95 34.74 54.96 28.75 58.66 26.91 59.21 28.02 56.87 29.19 57.49 30.43 59.7 29.33 60.25 30.43"/><path class="cls-1" d="M70.1,29.66a4.45,4.45,0,0,1-1.55.79,3.18,3.18,0,0,1-4.35-2.12,3.4,3.4,0,0,1,2.4-4.49,4,4,0,0,1,1.66-.22l.07,1.24a3.29,3.29,0,0,0-1.28.15,2,2,0,0,0-1.37,2.75,2,2,0,0,0,2.71,1.43,3.73,3.73,0,0,0,1.13-.59Z"/><path class="cls-1" d="M76.58,25.06A3.19,3.19,0,0,1,74,29.13a3.12,3.12,0,0,1-3.72-2.75,3.23,3.23,0,0,1,2.54-4.05,3.1,3.1,0,0,1,3.75,2.73m-4.73,1c.25,1.28,1,2.08,2,1.89S75.26,26.68,75,25.4s-1-2.08-2-1.88-1.41,1.25-1.17,2.53"/><rect class="cls-1" x="78.19" y="25.14" width="2.6" height="1" transform="translate(-1.89 6.84) rotate(-4.87)"/><path class="cls-1" d="M88.69,24.69a3.18,3.18,0,0,1-3.34,3.46,3.11,3.11,0,0,1-3.08-3.45,3.23,3.23,0,0,1,3.31-3.44,3.1,3.1,0,0,1,3.11,3.43m-4.83,0c0,1.31.58,2.24,1.59,2.26s1.62-.95,1.65-2.25-.54-2.24-1.58-2.26-1.63.95-1.66,2.25"/><path class="cls-1" d="M91,21.73a12.66,12.66,0,0,1,2,.15A3.16,3.16,0,0,1,95,22.7a1.94,1.94,0,0,1,.49,1.63,2.13,2.13,0,0,1-.83,1.49,3.08,3.08,0,0,1-2.25.39,2.88,2.88,0,0,1-.51-.1l-.33,2.37L90,28.27ZM92,25a2.12,2.12,0,0,0,.49.11c.8.11,1.35-.22,1.44-.9s-.28-1-1-1.14a2.34,2.34,0,0,0-.63,0Z"/><polygon class="cls-1" points="100.72 27.48 98.33 26.87 97.94 28.41 100.6 29.09 100.3 30.29 96.16 29.24 97.81 22.75 101.81 23.77 101.5 24.97 98.97 24.33 98.63 25.68 101.02 26.28 100.72 27.48"/><path class="cls-1" d="M104,24.53a14.13,14.13,0,0,1,1.93.58,3.4,3.4,0,0,1,1.84,1.25,1.64,1.64,0,0,1,.09,1.52A1.79,1.79,0,0,1,106.17,29v0a1.72,1.72,0,0,1,.4,1.49c-.07.78-.18,1.67-.15,1.95L105,31.94a7.52,7.52,0,0,1,.11-1.62c.12-.84-.07-1.16-.64-1.38l-.43-.16-.92,2.46-1.4-.52Zm.39,3.22.56.21c.71.27,1.26.07,1.46-.48s-.06-1-.71-1.26A3.68,3.68,0,0,0,105,26Z"/><path class="cls-1" d="M109.8,32.23l-1.21,1.3-1.4-.72,4.9-5,1.76.91-1.23,6.9-1.45-.75.33-1.76Zm2-.23.28-1.45c.08-.41.2-.9.3-1.3h0c-.27.31-.59.71-.87,1l-1,1.08Z"/><polygon class="cls-1" points="117.08 32.1 115.58 31.12 116.28 30.05 120.58 32.87 119.88 33.93 118.35 32.93 115.39 37.46 114.12 36.63 117.08 32.1"/><rect class="cls-1" x="117.2" y="36.33" width="6.68" height="1.52" transform="translate(17.15 109.31) rotate(-52.04)"/><path class="cls-1" d="M121.64,42.36l3-6.36,1.21,1.14-1.34,2.62c-.38.74-.75,1.44-1.2,2.16l0,0c.67-.47,1.37-.91,2.06-1.31L128,39.12l1.17,1.1-6.22,3.35Z"/><polygon class="cls-1" points="130.05 47.16 128.45 45.29 127.24 46.32 129.03 48.41 128.09 49.22 125.31 45.98 130.4 41.63 133.08 44.77 132.14 45.57 130.44 43.59 129.39 44.49 130.99 46.36 130.05 47.16"/><path class="cls-1" d="M136.05,49a13,13,0,0,1,1.14,1.6,3.72,3.72,0,0,1,.72,1.88,1.47,1.47,0,0,1-.7,1.37,1.5,1.5,0,0,1-1.79-.19h0a1.68,1.68,0,0,1-.71,2,1.79,1.79,0,0,1-1.57.15,4.26,4.26,0,0,1-1.9-1.92,11.59,11.59,0,0,1-.77-1.45Zm-3.93,4.18a5.29,5.29,0,0,0,.29.51c.36.58.9,1,1.5.59s.49-1,.09-1.65l-.27-.44Zm2.53-1.56.26.43c.42.67.92.86,1.34.6s.46-.73.1-1.32a4.14,4.14,0,0,0-.37-.52Z"/><path class="cls-1" d="M135.9,58.58l-1.76.29-.65-1.43,6.92-.94.83,1.8L136,63l-.68-1.47,1.34-1.19Zm1.74,1.07,1.11-1c.31-.27.71-.59,1-.84v0c-.4.07-.9.2-1.3.26L137,58.3Z"/><path class="cls-1" d="M136.5,64.23l6.38-2,.53,1.68L141.48,66a18.94,18.94,0,0,1-1.86,1.72v0a24.86,24.86,0,0,1,2.62-1l1.87-.58.41,1.32-6.38,2L137.68,68l2-2.13a25.4,25.4,0,0,1,1.91-1.82l0,0c-.83.3-1.72.6-2.76.92l-1.92.61Z"/><path class="cls-1" d="M145.12,70l.26,1.47-2.91.53v0c.28.1.54.22.8.32l2.46,1.1.32,1.83-3.19-1.67-3.36,3-.32-1.74,2.56-2.12-.8-.44-2.15.38-.26-1.47Z"/><polygon class="cls-1" points="146.46 79.94 146.5 81.45 141.09 81.6 141.16 84.25 139.89 84.29 139.78 80.11 146.46 79.94"/><polygon class="cls-1" points="145.2 86.24 145.3 84.44 146.57 84.52 146.27 89.65 145 89.57 145.11 87.75 139.71 87.43 139.79 85.92 145.2 86.24"/><path class="cls-1" d="M146,91.64a14,14,0,0,1-.22,2,4.36,4.36,0,0,1-1.19,2.57,3,3,0,0,1-2.68.66,3.37,3.37,0,0,1-2.47-1.57,4.82,4.82,0,0,1-.3-3.19,13,13,0,0,1,.4-1.67Zm-5.64.53a4.3,4.3,0,0,0-.12.51,2.07,2.07,0,0,0,1.91,2.64,1.91,1.91,0,0,0,2.46-1.69,3.5,3.5,0,0,0,.06-.68Z"/><path class="cls-1" d="M138.92,97.34a.87.87,0,0,1,.65,1.1.85.85,0,0,1-1.12.61.86.86,0,0,1-.65-1.1.87.87,0,0,1,1.12-.61"/><path class="cls-1" d="M136.56,102.39l.85.35.38,1.06c.62,1.78,1,2.69,1.72,3a.92.92,0,0,0,1.28-.62,2.35,2.35,0,0,0,0-1.48H142a3.49,3.49,0,0,1-.19,2.21,2,2,0,0,1-2.73,1.32,4,4,0,0,1-1.92-2.64l-.23-.74h0L136,107.1l-1.15-.47Z"/><path class="cls-1" d="M134.23,107.86l.8.44.27,1.09c.43,1.84.73,2.79,1.39,3.17a.91.91,0,0,0,1.33-.48,2.29,2.29,0,0,0,.19-1.47l1.16.14a3.57,3.57,0,0,1-.43,2.18,2,2,0,0,1-2.86,1,4,4,0,0,1-1.62-2.85l-.15-.76h0l-1.16,2.14-1.09-.6Z"/><path class="cls-1" d="M132.39,114.1a3.55,3.55,0,0,0-1.18,1c-.45.65-.36,1.19,0,1.46s1.12,0,1.49-.54l.35-.5.89.61-.33.49c-.28.42-.49,1-.05,1.36s.74.13,1.1-.39a2.91,2.91,0,0,0,.45-1.33l1.07.37a3.89,3.89,0,0,1-.74,1.91c-.78,1.13-1.81,1.35-2.54.85a1.55,1.55,0,0,1-.55-1.83h0a1.59,1.59,0,0,1-2.08.26c-.94-.65-1-2-.12-3.3a3.93,3.93,0,0,1,1.47-1.31Z"/><path class="cls-1" d="M127.88,117.89l.69.6,0,1.12c0,1.9.13,2.89.69,3.4a.93.93,0,0,0,1.41-.19,2.39,2.39,0,0,0,.5-1.39l1.09.38a3.55,3.55,0,0,1-.88,2,2,2,0,0,1-3,.38,4,4,0,0,1-1-3.12l0-.77h0l-1.59,1.84-.94-.82Z"/><path class="cls-1" d="M84.15,100.34c-13.89,0-25.94-1.71-31.95-4.21v0c0,4.51,14,8.17,31.25,8.17,16.57,0,30.13-3.37,31.18-7.64-6.38,2.19-17.65,3.65-30.48,3.65"/><path class="cls-1" d="M74.43,128.05h-.14a2.1,2.1,0,0,1-1.83-.95,1.45,1.45,0,0,1-.18-1.5,12.78,12.78,0,0,1,1.79-3.08,1.66,1.66,0,0,1,1.3-.63,2.3,2.3,0,0,1,1.94.94,1.63,1.63,0,0,1,.14,1.93c-.58.9-1.16,1.78-1.76,2.65a1.49,1.49,0,0,1-1.26.65M74.3,127h0a.49.49,0,0,0,.48-.19c.59-.86,1.17-1.74,1.73-2.62a.57.57,0,0,0-.08-.73,1.2,1.2,0,0,0-1.08-.53.65.65,0,0,0-.51.23A12.08,12.08,0,0,0,73.25,126a.41.41,0,0,0,0,.46c.33.42.61.58,1,.55Z"/><path class="cls-1" d="M77.32,129.7a2.25,2.25,0,0,1-.71-.12,2.06,2.06,0,0,1-1.28-1.2,1.91,1.91,0,0,1,.19-1.7c.38-.64.78-1.25,1.19-1.87l.18-.27a1.76,1.76,0,0,1,1.6-.85h0a2.16,2.16,0,0,1,1.86,1.13,1.82,1.82,0,0,1-.15,2c-.18.29-.35.58-.52.88s-.38.64-.58.95a2.11,2.11,0,0,1-1.79,1.06m1.09-5a.75.75,0,0,0-.65.38l-.17.27c-.4.6-.8,1.21-1.18,1.83a.88.88,0,0,0,.54,1.36,1,1,0,0,0,1.28-.51c.19-.3.37-.6.55-.91s.36-.61.55-.91c.3-.47.22-.73.11-.93a1.12,1.12,0,0,0-1-.58h0"/><path class="cls-1" d="M80.39,131.2l-.29-.07a3.09,3.09,0,0,1-.59-.18,1.85,1.85,0,0,1-.88-2.73,18,18,0,0,1,1-1.54,1.77,1.77,0,0,1,2.52-.44,1.8,1.8,0,0,1,.82,2.42c-.27.56-.58,1.1-.89,1.63a1.84,1.84,0,0,1-1.66.91Zm.7-4.25a.71.71,0,0,0-.58.35c-.35.47-.68,1-1,1.46a.88.88,0,0,0-.11.71.84.84,0,0,0,.51.52,1.93,1.93,0,0,0,.41.12l.17,0a.77.77,0,0,0,.71-.39c.3-.51.59-1,.84-1.55a.79.79,0,0,0-.41-1.07,1.06,1.06,0,0,0-.56-.19"/><path class="cls-1" d="M71.79,125.82a2.11,2.11,0,0,1-1-.32,1.77,1.77,0,0,1-1-2,3.38,3.38,0,0,1,1.4-2.1,1.72,1.72,0,0,1,.53-.23l.22,0a2.21,2.21,0,0,1,2,1,1.9,1.9,0,0,1,0,1.9,5.28,5.28,0,0,1-1,1.3,1.58,1.58,0,0,1-1.13.52m.21-3.66h0a.72.72,0,0,0-.24.1,2.38,2.38,0,0,0-1,1.47c0,.13-.12.51.5.86s.66.22.91,0a4.27,4.27,0,0,0,.8-1,.85.85,0,0,0,0-.87,1.13,1.13,0,0,0-1-.49"/><path class="cls-1" d="M122.25,76.49l-.41-.11a2,2,0,0,1-1.06-.64,1.22,1.22,0,0,1-.29-.69,7.68,7.68,0,0,1,0-1.66,1.45,1.45,0,0,0-.13-.77l-.48-1.18c-.2-.46-.39-.93-.59-1.4a.47.47,0,0,1,0-.21l.24.43,1.32,2.46a.74.74,0,0,0,.16.19c.31.22.62.43.92.66a3.65,3.65,0,0,1,.69.67,1.33,1.33,0,0,1,.28,1,2.56,2.56,0,0,1-.31,1l-.08.15c.16.33.32.66.47,1s.38.88.56,1.32.29.76.43,1.13c.07.2.13.41.2.61l.33,1.06a1.21,1.21,0,0,1,0,.18c.15.61.31,1.22.45,1.84.07.35.12.71.18,1.07,0,.2.07.39.1.59,0,.41.11.81.15,1.22s.07.9.09,1.35,0,1.07,0,1.61A22.05,22.05,0,0,1,125.2,93a21.48,21.48,0,0,1-1,3.6,17.08,17.08,0,0,1-1,2.23c-.21.38-.41.78-.64,1.15a15.89,15.89,0,0,1-1.48,2,14.29,14.29,0,0,1-1.92,1.89,15.09,15.09,0,0,1-4.49,2.58,14.58,14.58,0,0,1-2.51.69,16.43,16.43,0,0,1-2.88.28.32.32,0,0,1-.16,0l.38-.05c.61-.15,1.22-.28,1.82-.45s.93-.33,1.4-.49a12.43,12.43,0,0,0,1.44-.65,13.89,13.89,0,0,0,1.59-.91,16.38,16.38,0,0,0,1.91-1.43,17.48,17.48,0,0,0,2.19-2.28,17.67,17.67,0,0,0,1.82-2.72A18.79,18.79,0,0,0,122.82,96a22.45,22.45,0,0,0,1-3.33q.27-1.28.42-2.58a28.6,28.6,0,0,0,.15-2.93c0-.71,0-1.41-.1-2.12l-.15-1.42c0-.24-.08-.46-.11-.69a32.3,32.3,0,0,0-.74-3.38c-.09-.35-.22-.69-.33-1l-.18-.57c-.18-.49-.36-1-.54-1.48"/><path class="cls-1" d="M131.1,91.11c-.18.26-.34.52-.52.76s-.56.68-.85,1a5.44,5.44,0,0,1-.49.47.55.55,0,0,0-.15.24,4,4,0,0,1-.81,1.46,2.83,2.83,0,0,1-.85.65,2.74,2.74,0,0,1-1.35.25,4.4,4.4,0,0,1-.88-.16.37.37,0,0,1,0-.31A3.09,3.09,0,0,1,126.34,94a4.1,4.1,0,0,1,1.39-.64,6.19,6.19,0,0,1,1.13-.18.53.53,0,0,0,.3-.12,11,11,0,0,0,1.67-1.67l.22-.26,0,0"/><path class="cls-1" d="M118.56,91.31c0,.13,0,.26,0,.39.11.49.22,1,.36,1.48a9.32,9.32,0,0,0,.33.88.32.32,0,0,0,.13.15,6.73,6.73,0,0,1,1.12.94,3.87,3.87,0,0,1,.84,1.37,3,3,0,0,1,.12,1.45,2.83,2.83,0,0,1-.09.37h-.15a3.22,3.22,0,0,1-1.47-.75,2.55,2.55,0,0,1-.69-1.13,4.15,4.15,0,0,1-.06-2,.56.56,0,0,0,0-.34.68.68,0,0,1-.07-.2c-.08-.32-.18-.63-.23-1s-.12-.86-.17-1.3a2.55,2.55,0,0,1,0-.39h0"/><path class="cls-1" d="M124.09,99.06a2.34,2.34,0,0,1,.48-.94A3.26,3.26,0,0,1,126.33,97a5.85,5.85,0,0,1,1.66-.2.62.62,0,0,0,.35-.1A10.49,10.49,0,0,0,130,95.35a3.62,3.62,0,0,1,.42-.36l-.14.18a10.42,10.42,0,0,1-1.37,1.45,6.12,6.12,0,0,1-.5.39.75.75,0,0,0-.24.29A3.89,3.89,0,0,1,126.88,99a2.58,2.58,0,0,1-1.89.38,3.32,3.32,0,0,1-.9-.27"/><path class="cls-1" d="M122.35,94.71a3.06,3.06,0,0,1-1.71-.8,2.49,2.49,0,0,1-.61-1A4.12,4.12,0,0,1,120,91a8,8,0,0,1-.64-2.87c0,.06,0,.13,0,.19.07.28.14.57.22.86a13.2,13.2,0,0,0,.44,1.25,1.13,1.13,0,0,0,.51.59A4.28,4.28,0,0,1,122,92.52a2.91,2.91,0,0,1,.38,2c0,.06,0,.13-.06.21"/><path class="cls-1" d="M126,92.12a2.45,2.45,0,0,1,.3-1,3.09,3.09,0,0,1,1.59-1.39,5.19,5.19,0,0,1,1-.33l.08,0a.75.75,0,0,0,.62-.3,11.09,11.09,0,0,0,1.28-1.55.27.27,0,0,1,.13-.1.42.42,0,0,1,0,.1,9,9,0,0,1-1.38,2,.61.61,0,0,0-.15.27,3.73,3.73,0,0,1-.53,1.27,2.35,2.35,0,0,1-1.46,1.05,3.23,3.23,0,0,1-1.45,0"/><path class="cls-1" d="M119.74,85c.05.17.11.33.16.5a9.3,9.3,0,0,0,.75,1.82.49.49,0,0,0,.24.21,4.9,4.9,0,0,1,1.1.76,3.13,3.13,0,0,1,.88,1.27,2.59,2.59,0,0,1,.11,1.38.14.14,0,0,1,0,.06,3.24,3.24,0,0,1-.93-.22,2.28,2.28,0,0,1-1.33-1.32,3.19,3.19,0,0,1-.23-1.15,4,4,0,0,1,0-.49.67.67,0,0,0-.07-.37,5.56,5.56,0,0,1-.36-1c0-.16-.11-.31-.15-.47-.07-.33-.13-.67-.2-1h0"/><path class="cls-1" d="M130.66,83.84c-.13.27-.25.55-.38.82a7.48,7.48,0,0,1-.79,1.22.62.62,0,0,0-.09.27,3.64,3.64,0,0,1-.48,1.35,2.16,2.16,0,0,1-1,.88,2.63,2.63,0,0,1-1.5.17.65.65,0,0,1,0-.14,2.7,2.7,0,0,1,1.28-2A4.2,4.2,0,0,1,129,85.8a.7.7,0,0,0,.41-.24A10.56,10.56,0,0,0,130.5,84l.09-.2.07,0"/><path class="cls-1" d="M119.79,82l.18.47a8.71,8.71,0,0,0,.8,1.62.48.48,0,0,0,.22.18l.4.19a3.61,3.61,0,0,1,1.48,1.39,2.6,2.6,0,0,1,.32,1.57.93.93,0,0,1-.44,0,2.74,2.74,0,0,1-1-.32,2.17,2.17,0,0,1-.85-1,3.7,3.7,0,0,1-.32-1.54.89.89,0,0,0-.09-.39,10.57,10.57,0,0,1-.43-1c-.13-.35-.22-.71-.33-1.06a1.22,1.22,0,0,1,0-.17h0"/><path class="cls-1" d="M123.21,83.34a2.37,2.37,0,0,1-2-.78,3.14,3.14,0,0,1-.44-.78,4,4,0,0,1-.19-1.07.62.62,0,0,0-.07-.23,6,6,0,0,1-.67-1.34,4.2,4.2,0,0,1-.27-.85l.47,1a6.76,6.76,0,0,0,.63,1,.4.4,0,0,0,.19.15c.28.13.57.24.84.39A3.12,3.12,0,0,1,123,82.17a2,2,0,0,1,.18,1.17"/><path class="cls-1" d="M125.81,85.53a1.14,1.14,0,0,1,0-.55,2.67,2.67,0,0,1,.88-1.59,3.76,3.76,0,0,1,1.22-.75.9.9,0,0,0,.46-.44,10,10,0,0,0,.76-1.54,2.2,2.2,0,0,1,.09-.21s0,0,0,0-.06.21-.08.3a7.87,7.87,0,0,1-.79,1.9.66.66,0,0,0-.07.25,3.25,3.25,0,0,1-.26,1.3,2,2,0,0,1-1.21,1.18,2.2,2.2,0,0,1-1,.17"/><path class="cls-1" d="M125.27,82.16a1.42,1.42,0,0,1-.13-.68,2.67,2.67,0,0,1,.68-1.72,5.07,5.07,0,0,1,1-.83.52.52,0,0,0,.15-.18,8.71,8.71,0,0,0,.5-1.65c0-.13,0-.26.07-.43a.79.79,0,0,1,0,.13,7.82,7.82,0,0,1-.38,2,.75.75,0,0,0,0,.42,2.77,2.77,0,0,1-.14,1.61,1.93,1.93,0,0,1-.84,1c-.2.11-.43.19-.64.28a1.69,1.69,0,0,1-.24,0"/><path class="cls-1" d="M124.23,78.69a1.63,1.63,0,0,1-.25-.75,2.71,2.71,0,0,1,.63-2c.17-.21.37-.41.56-.61a.46.46,0,0,0,.12-.23,8.69,8.69,0,0,0,.2-1.83.67.67,0,0,1,0-.24l0,.32a6.73,6.73,0,0,1,0,1.9.68.68,0,0,0,0,.28,2.91,2.91,0,0,1,.17,1.57,1.93,1.93,0,0,1-.59,1.07,2.74,2.74,0,0,1-.9.56"/><path class="cls-1" d="M122.37,79.14a2.55,2.55,0,0,1-1.54-.29,2.23,2.23,0,0,1-.8-.92,4.44,4.44,0,0,1-.34-1.24,7.38,7.38,0,0,1-1.1-2.1.44.44,0,0,1,.08.11,9.58,9.58,0,0,0,1,1.63.64.64,0,0,0,.33.23,4,4,0,0,1,1.09.47,2.77,2.77,0,0,1,1.05,1.15,2.31,2.31,0,0,1,.21.81.89.89,0,0,1,0,.15"/><path class="cls-1" d="M117.28,104.15s6-4.53,7.47-3.94-.46,7.06-9.53,13c0,0,6.07-6.68,6.79-9.61a28,28,0,0,1-10.15,3.79Z"/><path class="cls-1" d="M50.22,104.15s-6-4.53-7.47-3.94.46,7.06,9.53,13c0,0-6.07-6.68-6.78-9.61a44.5,44.5,0,0,0,10.63,3.25Z"/><path class="cls-1" d="M118.93,103.13s2.55-3.11,0-4.18-5.3,5.1-7.26,6a24.26,24.26,0,0,0,5.29-3.13s2.92-.42-1.74,3.94c0,0,4.64-2.75,4.66-4.36"/><path class="cls-1" d="M45.25,76.49l.41-.11a2,2,0,0,0,1.06-.64,1.22,1.22,0,0,0,.29-.69,7.68,7.68,0,0,0,0-1.66,1.45,1.45,0,0,1,.13-.77c.16-.39.32-.79.49-1.18s.38-.93.58-1.4a.47.47,0,0,0,0-.21l-.24.43-1.32,2.46a.74.74,0,0,1-.16.19c-.3.22-.62.43-.92.66a4.42,4.42,0,0,0-.7.67,1.37,1.37,0,0,0-.27,1,2.56,2.56,0,0,0,.31,1l.08.15c-.16.33-.32.66-.47,1s-.38.88-.56,1.32-.29.76-.43,1.13c-.07.2-.13.41-.2.61L43,81.51a1.21,1.21,0,0,0-.05.18c-.15.61-.31,1.22-.44,1.84-.08.35-.13.71-.19,1.07,0,.2-.07.39-.1.59-.05.41-.11.81-.15,1.22s-.07.9-.09,1.35,0,1.07,0,1.61A21,21,0,0,0,42.31,93a20.54,20.54,0,0,0,.95,3.6,17.08,17.08,0,0,0,1,2.23c.21.38.41.78.64,1.15a15.89,15.89,0,0,0,1.48,2,14.29,14.29,0,0,0,1.92,1.89,14.87,14.87,0,0,0,2.8,1.84,14.17,14.17,0,0,0,1.69.74,14.83,14.83,0,0,0,2.51.69,16.43,16.43,0,0,0,2.88.28.32.32,0,0,0,.16,0l-.38-.05c-.61-.15-1.22-.28-1.82-.45s-.93-.33-1.4-.49a13.24,13.24,0,0,1-1.44-.65,13.89,13.89,0,0,1-1.59-.91,16.38,16.38,0,0,1-1.91-1.43,17.48,17.48,0,0,1-2.19-2.28,18.43,18.43,0,0,1-1.82-2.72A18.79,18.79,0,0,1,44.68,96a22.45,22.45,0,0,1-1-3.33q-.27-1.28-.42-2.58a28.6,28.6,0,0,1-.15-2.93c0-.71,0-1.41.1-2.12,0-.47.09-.95.15-1.42,0-.24.08-.46.11-.69a30,30,0,0,1,.75-3.38c.08-.35.21-.69.32-1,.06-.19.12-.38.19-.57.17-.49.35-1,.53-1.48"/><path class="cls-1" d="M36.41,91.11c.17.26.33.52.51.76s.56.68.85,1a5.44,5.44,0,0,0,.49.47.47.47,0,0,1,.15.24,4,4,0,0,0,.82,1.46,2.67,2.67,0,0,0,.84.65,2.74,2.74,0,0,0,1.35.25,4.4,4.4,0,0,0,.88-.16.37.37,0,0,0,0-.31A3.09,3.09,0,0,0,41.16,94a4.19,4.19,0,0,0-1.39-.64,6.19,6.19,0,0,0-1.13-.18.53.53,0,0,1-.3-.12,11,11,0,0,1-1.67-1.67l-.22-.26,0,0"/><path class="cls-1" d="M48.94,91.31a2.6,2.6,0,0,1,0,.39c-.11.49-.22,1-.36,1.48-.09.3-.22.59-.33.88a.32.32,0,0,1-.13.15,6.73,6.73,0,0,0-1.12.94,3.87,3.87,0,0,0-.84,1.37A2.87,2.87,0,0,0,46,98c0,.12.06.24.09.37h.15a3.22,3.22,0,0,0,1.47-.75,2.55,2.55,0,0,0,.69-1.13,4.15,4.15,0,0,0,.06-2,.56.56,0,0,1,0-.34.48.48,0,0,0,.07-.2c.08-.32.18-.63.23-1s.12-.86.17-1.3a2.55,2.55,0,0,0,0-.39h0"/><path class="cls-1" d="M43.41,99.06a2.47,2.47,0,0,0-.48-.94A3.26,3.26,0,0,0,41.17,97a5.81,5.81,0,0,0-1.66-.2.62.62,0,0,1-.35-.1,10.49,10.49,0,0,1-1.69-1.36,4.71,4.71,0,0,0-.42-.36l.14.18a10.42,10.42,0,0,0,1.37,1.45,6.12,6.12,0,0,0,.5.39.75.75,0,0,1,.24.29A3.83,3.83,0,0,0,40.63,99a2.55,2.55,0,0,0,1.88.38,3.32,3.32,0,0,0,.9-.27"/><path class="cls-1" d="M45.15,94.71a3.06,3.06,0,0,0,1.71-.8,2.49,2.49,0,0,0,.61-1A4.12,4.12,0,0,0,47.55,91a8,8,0,0,0,.64-2.87c0,.06,0,.13,0,.19-.07.28-.14.57-.22.86a13.2,13.2,0,0,1-.44,1.25A1.13,1.13,0,0,1,47,91a4.28,4.28,0,0,0-1.51,1.48,2.91,2.91,0,0,0-.38,2c0,.06,0,.13.06.21"/><path class="cls-1" d="M41.49,92.12a2.45,2.45,0,0,0-.3-1,3.09,3.09,0,0,0-1.59-1.39,5,5,0,0,0-1-.33l-.08,0a.76.76,0,0,1-.62-.3,11.09,11.09,0,0,1-1.28-1.55.27.27,0,0,0-.13-.1.42.42,0,0,0,0,.1,8.71,8.71,0,0,0,1.39,2,.7.7,0,0,1,.14.27,3.73,3.73,0,0,0,.53,1.27A2.35,2.35,0,0,0,40,92.12a3.23,3.23,0,0,0,1.45,0"/><path class="cls-1" d="M47.76,85c0,.17-.11.33-.16.5a9.3,9.3,0,0,1-.75,1.82.49.49,0,0,1-.24.21,4.9,4.9,0,0,0-1.1.76,3.13,3.13,0,0,0-.88,1.27,2.59,2.59,0,0,0-.11,1.38.14.14,0,0,0,0,.06,3.24,3.24,0,0,0,.93-.22,2.28,2.28,0,0,0,1.33-1.32A3.19,3.19,0,0,0,47,88.31a4,4,0,0,0,0-.49.67.67,0,0,1,.07-.37,4.84,4.84,0,0,0,.36-1c0-.16.11-.31.15-.47.07-.33.13-.67.2-1h0"/><path class="cls-1" d="M36.84,83.84c.13.27.25.55.39.82A6.82,6.82,0,0,0,38,85.88a.51.51,0,0,1,.09.27,3.64,3.64,0,0,0,.48,1.35,2.16,2.16,0,0,0,1,.88,2.63,2.63,0,0,0,1.5.17.65.65,0,0,0,0-.14,2.7,2.7,0,0,0-1.28-2,4.2,4.2,0,0,0-1.32-.57.7.7,0,0,1-.41-.24A10.56,10.56,0,0,1,37,84l-.09-.2-.07,0"/><path class="cls-1" d="M47.71,82l-.18.47a8.14,8.14,0,0,1-.8,1.62.48.48,0,0,1-.22.18l-.4.19a3.61,3.61,0,0,0-1.48,1.39,2.6,2.6,0,0,0-.32,1.57.93.93,0,0,0,.44,0,2.74,2.74,0,0,0,1-.32,2.17,2.17,0,0,0,.85-1,3.7,3.7,0,0,0,.32-1.54.89.89,0,0,1,.09-.39,8.41,8.41,0,0,0,.43-1c.13-.35.22-.71.33-1.06a1.22,1.22,0,0,0,0-.17h0"/><path class="cls-1" d="M44.29,83.34a2.37,2.37,0,0,0,2-.78,3.14,3.14,0,0,0,.44-.78,4,4,0,0,0,.19-1.07.62.62,0,0,1,.07-.23,6,6,0,0,0,.67-1.34,4.2,4.2,0,0,0,.27-.85l-.47,1a6.76,6.76,0,0,1-.63,1,.4.4,0,0,1-.19.15c-.28.13-.57.24-.84.39a3.12,3.12,0,0,0-1.29,1.35,2,2,0,0,0-.18,1.17"/><path class="cls-1" d="M41.69,85.53a1.14,1.14,0,0,0,0-.55,2.67,2.67,0,0,0-.88-1.59,3.76,3.76,0,0,0-1.22-.75.94.94,0,0,1-.46-.44,9.18,9.18,0,0,1-.76-1.54,2.2,2.2,0,0,0-.09-.21s0,0,0,0,.06.21.08.3a7.87,7.87,0,0,0,.79,1.9.66.66,0,0,1,.07.25,3.25,3.25,0,0,0,.26,1.3,2,2,0,0,0,1.21,1.18,2.22,2.22,0,0,0,1,.17"/><path class="cls-1" d="M42.23,82.16a1.42,1.42,0,0,0,.13-.68,2.67,2.67,0,0,0-.68-1.72,5.07,5.07,0,0,0-1-.83.52.52,0,0,1-.15-.18,8.71,8.71,0,0,1-.5-1.65c0-.13,0-.26-.07-.43a.79.79,0,0,0,0,.13,7.82,7.82,0,0,0,.38,2,.75.75,0,0,1,0,.42,2.77,2.77,0,0,0,.14,1.61,1.93,1.93,0,0,0,.84,1c.2.11.43.19.64.28a1.69,1.69,0,0,0,.24,0"/><path class="cls-1" d="M43.27,78.69a1.52,1.52,0,0,0,.25-.75,2.71,2.71,0,0,0-.63-2c-.17-.21-.37-.41-.56-.61a.46.46,0,0,1-.12-.23,8.69,8.69,0,0,1-.2-1.83A.51.51,0,0,0,42,73l0,.32a6.73,6.73,0,0,0,.05,1.9.55.55,0,0,1,0,.28,2.91,2.91,0,0,0-.17,1.57,1.87,1.87,0,0,0,.59,1.07,2.85,2.85,0,0,0,.9.56"/><path class="cls-1" d="M45.13,79.14a2.56,2.56,0,0,0,1.54-.29,2.23,2.23,0,0,0,.8-.92,4.44,4.44,0,0,0,.34-1.24,7.38,7.38,0,0,0,1.1-2.1.44.44,0,0,0-.08.11,9.58,9.58,0,0,1-1,1.63.57.57,0,0,1-.33.23,4,4,0,0,0-1.09.47,2.77,2.77,0,0,0-1,1.15,2.11,2.11,0,0,0-.21.81.89.89,0,0,0,0,.15"/><path class="cls-1" d="M48.57,103.13S46,100,48.6,99s5.3,5.1,7.26,6a24.26,24.26,0,0,1-5.29-3.13s-2.92-.42,1.74,3.94c0,0-4.64-2.75-4.66-4.36"/><path class="cls-1" d="M100.33,123.7c-.15-.19-.68-.59-.86-.77l-1,.32a14,14,0,0,1,1.09,1.1c.26.33.29.44-.06.82a1.78,1.78,0,0,1-1.82.49,3.33,3.33,0,0,1-1.45-.68c-1.84-1.49-3.68-3-5.53-4.43l-.44-.34a3.36,3.36,0,0,0-.43-.31l-.47-.31-.3.22a1.08,1.08,0,0,0-.53.77,1,1,0,0,0,.43.74c.4.34.81.67,1.22,1l5.41,4.39c.33.27.38.41.1.85a1.65,1.65,0,0,1-1.14.8,1.88,1.88,0,0,1-1.49-.45l-4.92-4a2.07,2.07,0,0,0-.58-.36.87.87,0,0,0-.73,0,1,1,0,0,0-.48.69l-.07.29.22.21c.88.86,1.83,1.68,2.75,2.47s1.75,1.51,2.6,2.32a1,1,0,0,1-.09.18,1.92,1.92,0,0,1-2.57.25c-.74-.58-1.46-1.19-2.18-1.8l-1.19-1c-.21-.18-.41-.35-.63-.51a1,1,0,0,0-.57-.22h-.13a1,1,0,0,0-.56.39.72.72,0,0,0,0,.94l.09.09,1.36,1.22c.57.5,1.14,1,1.7,1.51a.38.38,0,0,1,.16.23.37.37,0,0,1-.12.18,1.57,1.57,0,0,1-1.76.35l-1.76-1.1-1.19-.77-.76.76,1.4.9,1.76,1.1a2.13,2.13,0,0,0,1.11.3,3,3,0,0,0,1.92-.77,1.3,1.3,0,0,0,.44-1,1.58,1.58,0,0,0,0-.28l.31.25a3,3,0,0,0,4-.38,2.05,2.05,0,0,0,.32-.57,1.8,1.8,0,0,1,.08-.21l.16-.34-.27-.26-.06-.06a2.88,2.88,0,0,0,2,.4,2.7,2.7,0,0,0,1.86-1.28,1.52,1.52,0,0,0,.17-1.63,4.5,4.5,0,0,0,.74.21,2.81,2.81,0,0,0,2.8-.82,1.48,1.48,0,0,0,.09-2.17"/><path class="cls-1" d="M97.48,110.2l0-1c.17,0,16.64-.69,21.9-7.22l.82.66c-5.56,6.9-22,7.58-22.68,7.6"/><path class="cls-1" d="M100.51,123.59a9,9,0,0,1-1.68-.15l.23-1a7.63,7.63,0,0,0,4.85-.71,10.84,10.84,0,0,1,4-1c2.56-.32,12.13-3.84,15.16-6l-2.7,3c-3.25,2.29-9.66,3.73-12.33,4.06a10.27,10.27,0,0,0-3.61.83,7.74,7.74,0,0,1-3.94,1"/><path class="cls-1" d="M72.43,110.19c-.91,0-14.53-.1-23.26-6l.59-.86c8.53,5.8,22.43,5.85,22.7,5.85h0v1Z"/><path class="cls-1" d="M70.38,123a11.93,11.93,0,0,0-5-2.93,31.93,31.93,0,0,0-4-.42c-4-.28-9.52-.65-13.44-2.83l-2.15-2.15c3.72,2.06,11.74,3.67,15.66,3.94a28.46,28.46,0,0,1,4.17.45,12.87,12.87,0,0,1,5.51,3.21Z"/><path class="cls-1" d="M82.82,108c-.26-.87-2.79-1-2.82-1a5.29,5.29,0,0,0-2.28.52c-.68.3-1.36.58-2,.87l-1,.4a3.9,3.9,0,0,1-1.74.32,4.85,4.85,0,0,0-.53.08v1a4.44,4.44,0,0,1,.49-.07,5.15,5.15,0,0,0,2.18-.4l1-.41q1-.42,2.07-.87A4.17,4.17,0,0,1,80,108l.23,0a6.55,6.55,0,0,1,1.19.2h0a8.74,8.74,0,0,1,1.21.37l.31-.28Z"/><path class="cls-1" d="M98.9,122.29l-.36-.29-1.25-1-1.2-1c-.75-.64-1.5-1.29-2.26-1.91q-.33-.25-.69-.48a4.52,4.52,0,0,1-.89-.7,1,1,0,0,0-.57-.29,8,8,0,0,1-3.55-2c-.4-.36-.78-.74-1.16-1.12l-.58-.58a1.75,1.75,0,0,0-1.22-.57,1.53,1.53,0,0,0-.3,0l-.15,0a9.51,9.51,0,0,0-1.61.41,1.87,1.87,0,0,0-.76.61l-.31.35a6.34,6.34,0,0,1-2.2,1.85,3.42,3.42,0,0,1-2.13.23.56.56,0,0,1,.08-.15q1.58-2.49,3.12-5a2.33,2.33,0,0,1,.9-.94l.47-.22a25.27,25.27,0,0,1,2.5-1.1,6.43,6.43,0,0,1,2.9-.1c2.65.35,5.3,1,7.87,1.53l2,.44,0-.36,1.44.24-.23-.63-.39-.13a1.36,1.36,0,0,0-.28-.08l-2.22-.5c-2.59-.59-5.27-1.19-8-1.55a7.4,7.4,0,0,0-3.39.16,23.4,23.4,0,0,0-2.61,1.14l-.46.22A3.23,3.23,0,0,0,80,110.08q-1.55,2.51-3.12,5a1.32,1.32,0,0,0-.11,1.32l.17.2.15.08a1.29,1.29,0,0,0,.37.15,4.51,4.51,0,0,0,2.77-.31,7.33,7.33,0,0,0,2.58-2.11l.32-.37a1.31,1.31,0,0,1,.32-.31,10.24,10.24,0,0,1,1.45-.37l.16,0c.13,0,.3,0,.58.26l.56.56c.4.4.79.8,1.21,1.17a8.71,8.71,0,0,0,4,2.23,5.36,5.36,0,0,0,1.11.89,6.34,6.34,0,0,1,.6.41c.76.62,1.5,1.26,2.24,1.89l1.21,1c.41.36.83.7,1.26,1l.88.73.3-.16c.21-.11.42-.19.63-.29Z"/><path class="cls-1" d="M93.29,95.39a4.58,4.58,0,0,0-1.86-3.07c-.31-.41.56-.89.48-2.25s-1.43-1.54-2.3-1.31-1,1.68-.83,2.32a8.12,8.12,0,0,0,.83,1.24s0,.36-.53.42-1.47,1.11-1.47,1.11-1.91-.24-3-.36-.91.2-.91.2l1.44,4.15c-.45.72.06.81.42,1.45a4.49,4.49,0,0,1,.47,1.22h6.37a15.82,15.82,0,0,0,.93-5.12M86,97.57s-1.09-2.42-1.09-2.67-.06-.5.78-.3S88,95,88,95a3,3,0,0,1,.73,1.41A5.42,5.42,0,0,1,86,97.57"/><path class="cls-1" d="M107.7,52.48a8.48,8.48,0,0,0-2.2-2.31l0-.05.4,0s0,0,0-.07c-.35-.06-.69-.14-1-.18a7.45,7.45,0,0,0-1.06-.07c-.34,0-.68,0-1,0v0l.69-.09s0,0,0-.07a10.64,10.64,0,0,0-4.83.65.38.38,0,0,1,.11-.11l.14-.08,0-.06a9,9,0,0,0-4.19,1.84,4.05,4.05,0,0,1,1-.89,4.77,4.77,0,0,0-2.41,1.58.1.1,0,0,0,0,0l.52-.8a.53.53,0,0,0-.21.11l-1.65,1.55a.61.61,0,0,1-.59.21L92.91,52a1.73,1.73,0,0,0-.84.16,4.22,4.22,0,0,1,1.78-1.45l0-.07L92.61,51a3.7,3.7,0,0,1,1.88-1.12,3.48,3.48,0,0,0-1,.13,6.17,6.17,0,0,1,.85-.51c.29-.15.6-.26.9-.38A3.48,3.48,0,0,0,94,49.4a4.74,4.74,0,0,1,2.13-1.48l0-.06-.95.24a6.85,6.85,0,0,1,2.11-1.29,7,7,0,0,0-1.79.54,2.73,2.73,0,0,1,.44-.39l.49-.37c.16-.11.33-.21.5-.31l.51-.26,0-.07-1.16.36,0-.06,2-1.1s0,0,0,0l-.89.27a21.2,21.2,0,0,1,2.31-1.44,3.79,3.79,0,0,0-.82.13,4.49,4.49,0,0,1,1.75-.59s0,0,0-.06l-.72-.05a3.63,3.63,0,0,1,1.5-.14,4.44,4.44,0,0,0-.83-.32c-.28-.06-.57-.09-.86-.13v0l.64-.14a8.05,8.05,0,0,0-2.45,0,.94.94,0,0,1,.14-.1l.12-.09a5,5,0,0,0-2.48,1.2c0-.09,0-.14.08-.24l-.61.38a7.92,7.92,0,0,0-2,1.68,1.06,1.06,0,0,1-.15.15,10.4,10.4,0,0,0-1.55,1.76,7.91,7.91,0,0,0-.48.79c-.14.27-.25.55-.4.89,0-.29.09-.51.14-.73l-.06,0a23,23,0,0,0-1.16,3.21,12,12,0,0,0-.57-2.08h-.05l.15,1a8.66,8.66,0,0,0-.84-2.15,1.35,1.35,0,0,0,.06.35c0,.12,0,.23.08.34a9,9,0,0,0-1.16-2.3,2.22,2.22,0,0,0,.09.37c0,.12.07.24.11.36a8.79,8.79,0,0,0-2.42-3.11l0,0c.12.21.25.41.38.62-.47-.46-.91-.93-1.38-1.36a4.65,4.65,0,0,0-1.58-1.13l.47.66a11.77,11.77,0,0,0-3.1-1.43l0,0L80,42l-1-.29,0,.07a4.65,4.65,0,0,1,.95.77l-.32-.14,0,.06a16.22,16.22,0,0,1,1.79,2c-.34-.24-.58-.49-.87-.67l0,.05,1,1.24,0,0L81,45l0,0a2.59,2.59,0,0,1,1.22,1.14l-.86-.3,0,.06a6.07,6.07,0,0,1,1.57,1.14l0,.05L82,46.89,82,47a11.3,11.3,0,0,1,2.12,1.32l-.76-.11c.29.19.58.32.86.48a1.78,1.78,0,0,1,.72.59,2.47,2.47,0,0,0-.81-.2,6.27,6.27,0,0,1,1.62,1.1,1.11,1.11,0,0,1-1-.39c-.21-.2-.44-.39-.67-.59a1,1,0,0,0-.17-.1,1.48,1.48,0,0,0,.21.27,1.71,1.71,0,0,1,.22.25c.07.09.11.17.17.26a10.17,10.17,0,0,0-2.81-2.25,3,3,0,0,0,.29.32c.11.12.22.24.31.36s.16.23.24.34a21.76,21.76,0,0,0-3.81-2.36l0,0c.18.22.37.43.56.65a6.89,6.89,0,0,0-4.79-.36,3,3,0,0,1,1.29.14,6.88,6.88,0,0,0-2.28.68,4.49,4.49,0,0,0-1.81,1.47,11.74,11.74,0,0,1,1.79-1.14,8,8,0,0,0-2.52,3.33,7,7,0,0,1,2.17-2.17,6.85,6.85,0,0,0-1.31,1.84,5.1,5.1,0,0,1,2-1.47,4.27,4.27,0,0,0-1,1.08,5.06,5.06,0,0,1,2.54-1.08c-.3.17-.54.29-.78.44a1.85,1.85,0,0,0-.63.52,5.83,5.83,0,0,1,1.84-.77l-.41.42a1.46,1.46,0,0,0-.4.52,3.56,3.56,0,0,1,1.86-.66,4.18,4.18,0,0,0-1.09.71A5.65,5.65,0,0,1,77.81,50c-1.08.48-1.72.91-1.87,1.28a4.06,4.06,0,0,1,2.48-.88,2.78,2.78,0,0,0-.94.44c.47,0,.91,0,1.34,0a3.8,3.8,0,0,1,1.34.24,3.89,3.89,0,0,0-1.58.27l1.47.09a6.9,6.9,0,0,1,1.46.26c-.85.39-1.29.72-1.43,1.07,1.09-.62,1.34-.72,1.68-.69a1.46,1.46,0,0,0-.52.8,2.71,2.71,0,0,1,2.23-.28,6.92,6.92,0,0,0-1.35.57,14.14,14.14,0,0,1,1.61,0,1.1,1.1,0,0,0-.5.72,1.37,1.37,0,0,1,1.34-.44,2.18,2.18,0,0,0-.9.72l.5-.12,0,.08-.34.17v0l.42,0a.58.58,0,0,0,0,.1l.38.13-.21.17-.25-.12L83,54a.87.87,0,0,0-.22,0l0,0,.39.41c-.44-.16-.84-.33-1.26-.44a3.34,3.34,0,0,0-1.36-.15,3,3,0,0,1,1.59,1.26,5.29,5.29,0,0,0-2.15-1c.2.13.41.23.6.37s.32.3.48.45a3.47,3.47,0,0,0-2-.71l1.09.69c-.49-.12-1-.27-1.44-.37a3.29,3.29,0,0,0-1.43-.07,2.51,2.51,0,0,1,1.12.55c-.53-.07-1.07-.16-1.61-.22a4,4,0,0,0-1.61.11,5.26,5.26,0,0,1,1.61.43,5.12,5.12,0,0,0-2.6.27v.06l.87.05c-.55.23-1.11.43-1.65.68a5.77,5.77,0,0,0-1.5.95l1.43-.41,0,.06a3.81,3.81,0,0,0-1.28,1.66,5.74,5.74,0,0,1,1.12-.9,12.05,12.05,0,0,1,1.17-.8,8.83,8.83,0,0,0-.93,2c.31-.45.58-.87.89-1.27a3.68,3.68,0,0,1,1.12-1,7.54,7.54,0,0,0-1.07,2c.18-.17.33-.35.5-.53l.51-.51c.37-.38.37-.38.56-.42l-.29.46c-.1.16-.19.31-.28.48a4.5,4.5,0,0,0-.23.43A3.87,3.87,0,0,1,76.92,57a4.11,4.11,0,0,0-1,1.24L77.5,57.2s0,0,0,0a3.93,3.93,0,0,0-.72,1.48,6.39,6.39,0,0,1,1.48-1.5,4.26,4.26,0,0,0-.71,1.43c.32-.32.58-.61.88-.88a2.32,2.32,0,0,1,1-.63c-.84.82-1.06,1.09-1.15,1.46a6.32,6.32,0,0,1,2.29-1.56A6.48,6.48,0,0,0,79.79,59a6.07,6.07,0,0,1,1.65-1.78c-.75,1.26-.88,1.54-.88,1.93a3.63,3.63,0,0,1,2.09-1.73c-.15.23-.31.43-.46.64s-.29.42-.42.63-.27.42-.4.63l0,0a6.2,6.2,0,0,1,2-1.76,6.93,6.93,0,0,0-1.26,2,5.42,5.42,0,0,1,2.65-1.78,8.47,8.47,0,0,0-1.48,1.89,6.42,6.42,0,0,1,2.42-1.54,8.82,8.82,0,0,0-1.16,2.13,15.41,15.41,0,0,1,1.75-1.58c-.12.22-.26.42-.38.62a2,2,0,0,0-.29.64c.32-.29.61-.6.94-.86a2.74,2.74,0,0,1,1.12-.55,1.69,1.69,0,0,0-.59,1.29.84.84,0,0,0,.77.89l.12,0a4.94,4.94,0,0,0,.29.69.52.52,0,0,1,.1.36c-.06.38-.1.76-.15,1.14-.11.84-.21,1.68-.32,2.52l-.15,1.41c-.13,1.21-.29,2.41-.37,3.61-.17,2.51-.32,5-.43,7.53-.07,1.48-.08,3-.11,4.44,0,.63,0,1.25,0,1.88,0,.85,0,1.71,0,2.56,0,.53,0,1.06,0,1.58h0v.15c0,.14,0,.28,0,.42,0,.56,0,1.11.08,1.66h0l.16,2.89.17,0s.89-1,1.38-1,.42-.18.42-.18a2.66,2.66,0,0,1-.88-1.56c-.11-.88.14-2.43,1.7-2.39,0-.51-.07-1-.1-1.51,0-.72-.07-1.45-.1-2.17,0-.87-.08-1.73-.1-2.6s0-1.56,0-2.34c0-1,0-2,0-2.93,0-.79,0-1.58,0-2.38,0-1.41.1-2.82.16-4.24,0-.8.11-1.6.14-2.4s.19-1.69.29-2.54a1.9,1.9,0,0,1,.08-.35c0,.68,0,1.31.08,2h.07c.11-.54.22-1.08.32-1.61h0l-.12,1.9.07,0a20.46,20.46,0,0,0,1.21-5.84,8.78,8.78,0,0,1,.18,2.89,8.18,8.18,0,0,0,.07-4.8,15.24,15.24,0,0,1,.92,1.91,5.14,5.14,0,0,0-.12-1c-.06-.31-.17-.61-.25-.91h0l.57.75c0-.14,0-.23-.06-.31h0l.29.52,0,0a19.12,19.12,0,0,1-.58-3.09,15.46,15.46,0,0,1,1.13,3.77h.07c0-1,0-2,0-2.93h0l.12,2c.08-.33.13-.66.18-1a5,5,0,0,1,.23-.94,30.82,30.82,0,0,0,.18,3.33,15.29,15.29,0,0,1,.49-3.23h.06l.09,3.42a22.32,22.32,0,0,1,.7-2.79,8.74,8.74,0,0,1,.22,1.76c0,.6,0,1.2,0,1.83a.88.88,0,0,0,.07-.13c.08-.41.17-.82.23-1.23s.1-1,.17-1.42a1,1,0,0,1,.23-.55c-.06,1.26-.12,2.47-.17,3.68h.06c.2-1,.39-2.07.59-3.11a16.15,16.15,0,0,1,.2,1.81c0,.6,0,1.19,0,1.79h0c.13-.68.25-1.36.38-2,0,.88-.06,1.75-.1,2.62,0,0,0,.07,0,.11l0,0h.06c.21-.94.41-1.89.64-2.89a11.64,11.64,0,0,1,.22,2.16c0,.7,0,1.4-.06,2.1.28-1,.51-2,.86-3a8.81,8.81,0,0,1,.22,2.16c0,.73-.09,1.45-.14,2.18a12.05,12.05,0,0,0,.4-1.2c.11-.42.19-.84.28-1.25.1,1.34.12,2.7.12,4.07a26.46,26.46,0,0,1,.77-3.16,6.9,6.9,0,0,1,0,1c-.08.52-.23,1-.28,1.54-.08.79-.11,1.58-.15,2.37a3.11,3.11,0,0,0,0,.43,29.58,29.58,0,0,1,.82-2.93l0,3.48h.06a6.77,6.77,0,0,1,.62-2.39,25.35,25.35,0,0,1,.44,4,11.16,11.16,0,0,0,.62-2c0,.22,0,.42,0,.63a1.51,1.51,0,0,0,.06.59c.15-.88.29-1.76.38-2.64a15.23,15.23,0,0,0,.17-2.73l.44.4.05,0a10,10,0,0,0-.84-2.55l0,0,.57.6.05,0a16.64,16.64,0,0,0-1.4-2.76l.31.24.31.23,0,0c-1-1.61-2.1-3.17-3.24-4.72l.95.31a5.92,5.92,0,0,0-1.42-1,14.06,14.06,0,0,0-1.64-.72c-.53-.2-1.09-.32-1.64-.47l.83-.14-.07-.06A9.49,9.49,0,0,0,96,55.71a1.13,1.13,0,0,1-.67-.14l.27-.1a2.43,2.43,0,0,0-.53,0c-.17,0-.33,0-.5,0a3.25,3.25,0,0,1,1.8-.11,2.67,2.67,0,0,0-1-.83l1.54.31a2.87,2.87,0,0,0-1-.65,4.58,4.58,0,0,1,1.87.73,2.45,2.45,0,0,0-.7-.92l0,0,1.38.45a1.5,1.5,0,0,0-.46-.68l1.33.24a2.66,2.66,0,0,0-.76-.89,5,5,0,0,1,.69.15,3.42,3.42,0,0,1,1.39.89,2.25,2.25,0,0,0-.69-1.14,6.46,6.46,0,0,1,1.23.64.47.47,0,0,0,0-.14l-.62-.74a4.45,4.45,0,0,1,1.5.64l0-.06-.49-.65c.2.12.35.19.5.29a4.7,4.7,0,0,1,.44.34c.13.11.24.23.36.34l.07,0c-.18-.34-.35-.68-.55-1.08l1.59.45a2.66,2.66,0,0,0-.94-.69,4.14,4.14,0,0,1,1.8.39l0-.06-.49-.37a3.22,3.22,0,0,1,1.33,1,4.35,4.35,0,0,0-1.18-1.43,3.88,3.88,0,0,1,1.49.71l0,0-.34-.47a3,3,0,0,1,1.09,1.23c.2.38.41.77.63,1.15,0,.05.07.08.11.12a8.33,8.33,0,0,0-.89-2.67l.93.78,0-.05M84.45,54.61a.77.77,0,0,1,.76.53Z"/><path class="cls-1" d="M96.75,52.86A6,6,0,0,0,95.13,52c-.58-.21-1.17-.38-1.74-.56l.88-.13v-.06a5.37,5.37,0,0,0-2.7-.07,5.22,5.22,0,0,1,1.62-.57,4,4,0,0,0-1.66,0c-.55.11-1.09.24-1.64.36A2.5,2.5,0,0,1,91,50.33a3.35,3.35,0,0,0-1.47.18c-.48.14-1,.33-1.45.49l1.07-.79a3.48,3.48,0,0,0-2,.88,5.45,5.45,0,0,1,.46-.5c.18-.15.39-.28.59-.42a5.4,5.4,0,0,0-2.14,1.15,3.13,3.13,0,0,1,1.53-1.42,3.4,3.4,0,0,0-1.38.26c-.43.15-.83.36-1.26.55l.36-.45s0,0,0,0a.88.88,0,0,0-.23.07c-.4.2-.8.42-1.2.63a2,2,0,0,1-.25.14l-.22-.15.38-.16a.41.41,0,0,1,0-.1l.43,0a0,0,0,0,0,0,0l-.36-.16a.24.24,0,0,1,0-.08l.53.09a2.11,2.11,0,0,0-1-.67,1.39,1.39,0,0,1,1.41.34,1.13,1.13,0,0,0-.56-.7A15.69,15.69,0,0,1,86,49.33a8.43,8.43,0,0,0-1.44-.49,2.85,2.85,0,0,1,2.32.11,1.48,1.48,0,0,0-.6-.77c.34-.07.61,0,1.78.58-.17-.36-.65-.66-1.55-1a7.32,7.32,0,0,1,1.48-.38c.5-.07,1-.12,1.51-.21A4.12,4.12,0,0,0,87.8,47a3.8,3.8,0,0,1,1.36-.35c.44,0,.89,0,1.38-.06a3,3,0,0,0-1-.38,4.26,4.26,0,0,1,2.62.72c-.19-.37-.88-.77-2-1.17a5.62,5.62,0,0,1,2.21.3,4.16,4.16,0,0,0-1.18-.66,3.69,3.69,0,0,1,2,.54c-.11-.27-.31-.36-.46-.51s-.33-.29-.46-.4a6.19,6.19,0,0,1,2,.65,2,2,0,0,0-.69-.49c-.25-.13-.52-.24-.83-.38a5.13,5.13,0,0,1,2.69.91,4.19,4.19,0,0,0-1.15-1,5.24,5.24,0,0,1,2.2,1.35,7.6,7.6,0,0,0-1.5-1.79,7.24,7.24,0,0,1,2.41,2.06,8.11,8.11,0,0,0-2.87-3.22,11,11,0,0,1,1.94,1,4.53,4.53,0,0,0-2-1.37A6.86,6.86,0,0,0,92,42.25,3,3,0,0,1,93.3,42a7.05,7.05,0,0,0-4.89.74l.52-.71,0,0a22.51,22.51,0,0,0-3.74,2.73c.08-.12.14-.25.22-.36s.19-.27.29-.4a2,2,0,0,0,.28-.36,10.4,10.4,0,0,0-2.71,2.54,2.34,2.34,0,0,1,.15-.27,2.83,2.83,0,0,1,.2-.28,1.31,1.31,0,0,0,.2-.3l-.17.12c-.22.22-.43.43-.64.66a1.14,1.14,0,0,1-1,.48,6.49,6.49,0,0,1,1.58-1.26,2.35,2.35,0,0,0-.81.27,1.88,1.88,0,0,1,.69-.67c.28-.19.57-.35.85-.56l-.77.17A12,12,0,0,1,85.63,43l0,0-.87.35,0-.05a6.59,6.59,0,0,1,1.53-1.3l0-.05-.86.38A2.72,2.72,0,0,1,86.5,41a.1.1,0,0,0,0,0l-.41.16,0,0,1-1.36,0-.05c-.28.21-.52.48-.84.75a18.37,18.37,0,0,1,1.67-2.24l0,0-.32.17a5.48,5.48,0,0,1,.92-.88l0-.06-1,.37.36-.27,0,0a12.3,12.3,0,0,0-3.08,1.72L85,38.4a4.66,4.66,0,0,0-1.54,1.28c-.45.48-.86,1-1.31,1.51l.34-.67,0,0a9.05,9.05,0,0,0-2.24,3.39c0-.13,0-.26.08-.39a2.32,2.32,0,0,0,.07-.38,9.47,9.47,0,0,0-1,2.46l.06-.36a1.46,1.46,0,0,0,0-.36,9.45,9.45,0,0,0-.69,2.27c0-.36,0-.72.07-1.08H78.7a12.49,12.49,0,0,0-.41,2.19A26.77,26.77,0,0,0,76.84,45l-.06,0c.06.23.13.46.2.75-.18-.34-.32-.62-.48-.89a7.22,7.22,0,0,0-.56-.77,10.64,10.64,0,0,0-1.73-1.69.8.8,0,0,1-.17-.15,8.36,8.36,0,0,0-2.16-1.57l-.65-.33.1.23a5.35,5.35,0,0,0-2.65-1,.6.6,0,0,0,.13.09l.15.09a7.86,7.86,0,0,0-2.51.21l.66.09v0a8.48,8.48,0,0,0-.87.21,3.91,3.91,0,0,0-.83.39,3.73,3.73,0,0,1,1.56,0l-.75.11v.07a4.59,4.59,0,0,1,1.85.46,3.61,3.61,0,0,0-.87-.06,21.08,21.08,0,0,1,2.5,1.29l-.93-.2a.06.06,0,0,0,0,0l2.14,1,0,.06-1.22-.27,0,.07.55.23a4,4,0,0,1,.54.28c.18.1.35.22.53.34a3.43,3.43,0,0,1,.49.36,8.18,8.18,0,0,0-1.89-.41,7,7,0,0,1,2.27,1.16l-1-.18a.14.14,0,0,1,0,.07,4.91,4.91,0,0,1,2.31,1.36,3.49,3.49,0,0,0-1.24-.18c.31.1.64.2,1,.32a7.89,7.89,0,0,1,.92.46A4.25,4.25,0,0,0,73,47a3.88,3.88,0,0,1,2,1l-1.27-.27,0,.07a4.42,4.42,0,0,1,2,1.35,1.66,1.66,0,0,0-.88-.09l1.82,1.53a.68.68,0,0,1-.63-.17L74.13,49a.41.41,0,0,0-.22-.1l.59.78,0,0a4.94,4.94,0,0,0-2.59-1.43,4.22,4.22,0,0,1,1,.84,9.34,9.34,0,0,0-4.44-1.56l0,.06.15.08a.35.35,0,0,1,.12.1,10.94,10.94,0,0,0-5-.28v.07l.72,0v0c-.36,0-.71,0-1.06,0a9.69,9.69,0,0,0-1.08.16c-.36.07-.7.18-1,.27v.07l.41-.06,0,0a8.67,8.67,0,0,0-2.08,2.55l.05,0,.89-.89a8.84,8.84,0,0,0-.7,2.83c0-.05.08-.09.11-.14l.55-1.23a3.08,3.08,0,0,1,1-1.35l-.31.51,0,0a4,4,0,0,1,1.47-.85,4.53,4.53,0,0,0-1.1,1.57,3.45,3.45,0,0,1,1.29-1.14l-.47.42,0,.06a4.48,4.48,0,0,1,1.82-.55,2.93,2.93,0,0,0-.91.79l1.6-.59c-.17.43-.32.79-.48,1.16l.07,0c.12-.12.23-.26.35-.38a5.3,5.3,0,0,1,.43-.38c.14-.11.29-.2.49-.33-.18.26-.32.48-.45.7l0,.06a4.62,4.62,0,0,1,1.49-.78l-.57.81a.19.19,0,0,0,0,.15,6,6,0,0,1,1.21-.76,2.37,2.37,0,0,0-.62,1.23,3.52,3.52,0,0,1,1.36-1,3.92,3.92,0,0,1,.69-.2,2.66,2.66,0,0,0-.71,1l1.36-.35a1.48,1.48,0,0,0-.43.73l1.39-.57,0,0a2.53,2.53,0,0,0-.64,1,4.66,4.66,0,0,1,1.87-.91,3.11,3.11,0,0,0-.95.74l1.57-.44a2.81,2.81,0,0,0-1,.94,3.36,3.36,0,0,1,1.86,0l-.51.07a2.58,2.58,0,0,0-.54.07l.28.08a1.11,1.11,0,0,1-.68.2,10.66,10.66,0,0,0-2.1.32l-.07.08.87.07c-.55.2-1.12.37-1.66.62a14,14,0,0,0-1.62.87,5.92,5.92,0,0,0-1.38,1.17l1-.4c-1.05,1.69-2.05,3.38-3,5.12l0,0,.3-.26a3.85,3.85,0,0,1,.3-.27,16.73,16.73,0,0,0-1.22,2.94l0,0,.54-.66.05,0a10.41,10.41,0,0,0-.66,2.68l.06,0,.41-.44a15.5,15.5,0,0,0,.4,2.79c.16.9.37,1.8.6,2.68a1.39,1.39,0,0,0,0-.61c0-.21,0-.42,0-.65a12.5,12.5,0,0,0,.8,2,26.52,26.52,0,0,1,.13-4.16,6.72,6.72,0,0,1,.83,2.41h.06l-.24-3.58a29.58,29.58,0,0,1,1.07,2.95,3.38,3.38,0,0,0,0-.45c-.11-.81-.2-1.62-.34-2.43-.1-.52-.29-1-.41-1.56a6,6,0,0,1-.13-1,25.91,25.91,0,0,1,1,3.2c-.11-1.41-.19-2.81-.19-4.2.12.41.24.84.39,1.26a9.72,9.72,0,0,0,.51,1.21c-.11-.75-.25-1.49-.32-2.24a8.77,8.77,0,0,1,0-2.23c.44,1,.76,2,1.12,3.06-.07-.72-.17-1.44-.22-2.17A11.21,11.21,0,0,1,69,59.05c.3,1,.59,2,.88,2.92h.06l0,0v-.12c-.11-.89-.22-1.79-.31-2.69.18.69.37,1.38.55,2.07h0c0-.62-.09-1.23-.11-1.85a16.79,16.79,0,0,1,.07-1.87L71,60.62h.07c-.15-1.24-.31-2.48-.47-3.77a1.11,1.11,0,0,1,.28.55c.11.48.18,1,.29,1.44s.22.84.33,1.25c0,0,0,.07.09.13-.06-.65-.11-1.26-.15-1.88a8.64,8.64,0,0,1,.09-1.83,23.75,23.75,0,0,1,.94,2.81l-.18-3.53h.06a15.8,15.8,0,0,1,.76,3.28,32.92,32.92,0,0,0-.08-3.44,5,5,0,0,1,.31,1,9.27,9.27,0,0,0,.27,1c0-.68,0-1.35,0-2h0c.09,1,.18,2,.28,3H74a16.74,16.74,0,0,1,.86-4,19.46,19.46,0,0,1-.35,3.22l.06,0c.09-.19.17-.37.25-.56h0c0,.09,0,.18,0,.33l.53-.83,0,0c-.07.31-.15.63-.19,1a4.76,4.76,0,0,0,0,1,14.83,14.83,0,0,1,.79-2,8.44,8.44,0,0,0,.45,4.94,9.09,9.09,0,0,1,0-3,21.24,21.24,0,0,0,1.7,5.9h.08c-.09-.65-.18-1.3-.28-2h0l.46,1.63h.07c0-.66,0-1.31-.07-2,0,.15.09.25.12.36.16.87.4,1.71.49,2.59s.24,1.64.33,2.46q.27,2.18.51,4.35c.09.81.16,1.62.23,2.44.08,1,.14,2,.21,3,0,.8.11,1.6.15,2.41s.08,1.78.11,2.67.05,1.5.07,2.25c0,1,0,2,0,3s0,2.19,0,3.28c0,.18,0,.36,0,.6l-.23-.28a4.23,4.23,0,0,0-1.22-1.05,1.17,1.17,0,0,0-1.57.3l.25-.13a1.08,1.08,0,0,1,1.34.08,3.56,3.56,0,0,1,1.1,1.32L80,91.62a5.33,5.33,0,0,0-1.2-.69,2.39,2.39,0,0,0-2,.07,1.51,1.51,0,0,0-.28.15,1,1,0,0,1-1.14.13.43.43,0,0,0-.2,0c.59.32,1.28.39,1.91.79a3.76,3.76,0,0,0-2.52,1.08c.37-.17.72-.35,1.1-.5a2.22,2.22,0,0,1,1.19-.16c.38.08.83-.06,1.16.35l-.47.14-.71.2H87.24a.88.88,0,0,0-.52-.74,6.34,6.34,0,0,1,1.78-1.16.84.84,0,0,1,0-.17l-.25,0a6.44,6.44,0,0,0-1.82.85.45.45,0,0,1-.43.08,2.24,2.24,0,0,0-.51-.07,8.59,8.59,0,0,1,2.91-1.53,1.93,1.93,0,0,1,0-.24,8.69,8.69,0,0,0-2.91,1l-.31.17c0-.09,0-.13,0-.15a5.67,5.67,0,0,1,1-1.34,1.54,1.54,0,0,1,1-.5.16.16,0,0,0,0,0l-.12-.08A3.16,3.16,0,0,1,88.56,89a2.11,2.11,0,0,0-1.27.1,8.8,8.8,0,0,0-3,1.95c0,.06-.11.11-.16.16l-.07,0a2.19,2.19,0,0,1,.63-1.2,7.45,7.45,0,0,0,.8-.79l-.51.28a1.06,1.06,0,0,1,.44-.45c.17-.12.35-.23.54-.34a4.28,4.28,0,0,0,.57-.34,1.17,1.17,0,0,0-.2.06,3.88,3.88,0,0,0-2,1.52,3.18,3.18,0,0,1-.37.37c0-.3,0-.53,0-.75,0-1,0-2-.08-2.94,0-.73-.08-1.47-.12-2.21s-.11-1.76-.17-2.64c0-.65-.09-1.29-.15-1.93-.15-1.52-.27-3-.46-4.56-.33-2.57-.67-5.14-1-7.71-.18-1.23-.44-2.45-.67-3.68-.09-.48-.17-1-.27-1.45-.17-.85-.35-1.71-.52-2.57l-.24-1.15a.52.52,0,0,1,.07-.38c.1-.22.15-.46.24-.73l.12,0a.87.87,0,0,0,.73-1,1.72,1.72,0,0,0-.72-1.27,2.61,2.61,0,0,1,1.2.47c.36.24.69.54,1,.81a1.86,1.86,0,0,0-.35-.63c-.14-.21-.3-.4-.44-.61a14.43,14.43,0,0,1,1.92,1.48,9.29,9.29,0,0,0-1.35-2.1,6.52,6.52,0,0,1,2.6,1.4,8.29,8.29,0,0,0-1.67-1.83A5.59,5.59,0,0,1,86.37,56a7.31,7.31,0,0,0-1.46-2,6.44,6.44,0,0,1,2.25,1.65l0,0c-.15-.2-.3-.41-.46-.61s-.32-.42-.49-.61l-.52-.62A3.65,3.65,0,0,1,88,55.38c0-.41-.18-.68-1-1.93a6.55,6.55,0,0,1,1.84,1.71,7.23,7.23,0,0,0-1-1.9,6.34,6.34,0,0,1,2.48,1.43c-.12-.38-.36-.64-1.29-1.42a2.45,2.45,0,0,1,1.07.57c.33.25.62.53,1,.83a4.26,4.26,0,0,0-.83-1.4,6.47,6.47,0,0,1,1.63,1.41A4,4,0,0,0,91,53.22l0,0,1.72,1a4.47,4.47,0,0,0-1.14-1.2,4.06,4.06,0,0,1,1.91,1.4l-.27-.43-.33-.47L92.57,53c.2,0,.2,0,.61.38l.57.49c.18.17.36.34.55.5A7.43,7.43,0,0,0,93,52.43a3.79,3.79,0,0,1,1.24.93c.34.38.66.8,1,1.24a8.88,8.88,0,0,0-1.11-2,14.42,14.42,0,0,1,1.27.73,6.06,6.06,0,0,1,1.22.85,3.77,3.77,0,0,0-1.45-1.61l0-.07,1.5.31M76.29,91.47a2.31,2.31,0,0,1,3.15.57c-.29-.11-.58-.23-.88-.32s-.76-.15-1,.24l-1.26-.49m1.4.59c.2-.25.32-.3.63-.18s.76.36,1.13.55a.41.41,0,0,1,.13.1,5.59,5.59,0,0,0-1.89-.47m7-.71.06.05c-.12.2-.23.42-.35.62a5.66,5.66,0,0,1-.31.48s-.08,0-.13,0l0,0c.25-.39.51-.77.77-1.16M82.93,51.66a.8.8,0,0,1,.73-.61l-.73.61"/><path class="cls-1" d="M83.41,93.83c-.06-.2,0-.68.77-.6s3.27.38,3.27.38.89-1,1.38-1.06l.19,0v0a44.28,44.28,0,0,1-6.75.23c-8.23-.25-10.88,2-8.37,2,1.34,0,5.11.23,10,.32-.16-.43-.41-1.1-.45-1.23"/><path class="cls-1" d="M85.51,94.9c-.15,0-.35-.12-.23.18h1.15l-.92-.19"/><path class="cls-1" d="M99.09,90.68a35.08,35.08,0,0,1-7.12.85c0,.11-.09.22-.12.29s-.1.31.42.77A5,5,0,0,1,93.62,95c1.49,0,3-.12,4.5-.23,10.69-.81,3.64-4.86,1-4.06"/><path class="cls-1" d="M118.27,89.46C90.19,77,61.74,84.65,49,89.42V90.9c12.39-4.69,41.12-12.7,69.31.09Z"/><rect class="cls-1" x="367.17" y="25.92" width="13.79" height="9.83"/><path class="cls-1" d="M176.74,22.71h24.65c17.38,0,30.26,6,30.26,24.13,0,17.44-12.93,25.37-29.78,25.37H190.62V101H176.74Zm24,38.39C212.4,61.1,218,56.46,218,46.84s-6.08-13-17.72-13h-9.62V61.1Z"/><path class="cls-1" d="M237.44,85.18c0-12.59,10.44-19.15,34.56-21.74-.19-6.31-2.73-11.58-10.67-11.58-5.84,0-11.35,2.63-16.52,5.79l-5.07-9.19c6.46-4.07,14.79-7.71,24.12-7.71,14.7,0,21.93,9,21.93,25.42V101h-11.3l-1.05-6.51h-.38c-5.27,4.51-11.3,8-18.24,8-10.29,0-17.38-7-17.38-17.23m34.56,0V72c-15.94,2-21.25,6.18-21.25,12.11,0,5.2,3.54,7.47,8.47,7.47s8.43-2.34,12.78-6.36"/><path class="cls-1" d="M302.35,85.85V16.44h13.79V86.57c0,3.4,1.53,4.59,3,4.59a8,8,0,0,0,2.15-.24L323,101.21a19.36,19.36,0,0,1-7.28,1.2c-9.77,0-13.36-6.32-13.36-16.56"/><path class="cls-1" d="M334.76,85.85V16.44h13.79V86.57c0,3.4,1.53,4.59,3,4.59a8,8,0,0,0,2.15-.24l1.73,10.29a19.36,19.36,0,0,1-7.28,1.2c-9.77,0-13.36-6.32-13.36-16.56"/><rect class="cls-1" x="367.17" y="42.19" width="13.79" height="58.78"/><path class="cls-1" d="M394.7,123.9l2.53-10.67a16.55,16.55,0,0,0,4.22.81c6.17,0,9.76-4.21,11.73-10.1l1.1-3.68L391.16,42.19h14L415.28,71c1.77,5.22,3.45,11,5.17,16.61h.48c1.48-5.46,3-11.25,4.5-16.61l8.76-28.82H447.5l-21.26,61.47c-4.88,13.23-11.05,21.44-23.88,21.44a22.87,22.87,0,0,1-7.66-1.2"/><path class="cls-1" d="M452.15,85.18c0-12.59,10.43-19.15,34.56-21.74C486.52,57.13,484,51.86,476,51.86c-5.84,0-11.34,2.63-16.51,5.79l-5.08-9.19c6.47-4.07,14.8-7.71,24.13-7.71,14.7,0,21.92,9,21.92,25.42V101H489.2l-1.06-6.51h-.38c-5.27,4.51-11.3,8-18.24,8-10.29,0-17.37-7-17.37-17.23m34.56,0V72c-15.94,2-21.26,6.18-21.26,12.11,0,5.2,3.55,7.47,8.48,7.47,4.78,0,8.42-2.34,12.78-6.36"/><polygon class="cls-1" points="517.06 16.44 530.56 16.44 530.56 69.24 530.94 69.24 552.72 42.19 567.8 42.19 547.65 66.13 569.86 100.97 554.87 100.97 539.75 75.46 530.56 86.04 530.56 100.97 517.06 100.97 517.06 16.44"/><polygon class="cls-1" points="579.48 16.44 592.98 16.44 592.98 69.24 593.37 69.24 615.14 42.19 630.22 42.19 610.07 66.13 632.28 100.97 617.3 100.97 602.17 75.46 592.98 86.04 592.98 100.97 579.48 100.97 579.48 16.44"/><path class="cls-1" d="M637.55,85.18c0-12.59,10.43-19.15,34.56-21.74-.19-6.31-2.73-11.58-10.67-11.58-5.85,0-11.35,2.63-16.52,5.79l-5.07-9.19c6.46-4.07,14.79-7.71,24.12-7.71,14.7,0,21.93,9,21.93,25.42V101H674.6l-1.05-6.51h-.38c-5.27,4.51-11.3,8-18.24,8-10.3,0-17.38-7-17.38-17.23m34.56,0V72c-15.94,2-21.25,6.18-21.25,12.11,0,5.2,3.54,7.47,8.47,7.47s8.43-2.34,12.78-6.36"/><path class="cls-1" d="M702.46,85.85V16.44h13.79V86.57c0,3.4,1.53,4.59,3,4.59a8,8,0,0,0,2.16-.24l1.72,10.29a19.26,19.26,0,0,1-7.27,1.2c-9.77,0-13.36-6.32-13.36-16.56"/><path class="cls-1" d="M213.86,130.07a24.51,24.51,0,0,1,4-.31,6.68,6.68,0,0,1,4.57,1.35,4.4,4.4,0,0,1,1.43,3.42,4.78,4.78,0,0,1-1.26,3.49,6.74,6.74,0,0,1-5,1.79,7.26,7.26,0,0,1-1.69-.14v6.54h-2.11ZM216,138a7.1,7.1,0,0,0,1.74.17c2.55,0,4.1-1.24,4.1-3.49s-1.53-3.2-3.86-3.2a8.57,8.57,0,0,0-2,.17Z"/><path class="cls-1" d="M232.54,146.21l-.17-1.48h-.07a4.35,4.35,0,0,1-3.58,1.74,3.34,3.34,0,0,1-3.59-3.36c0-2.84,2.52-4.39,7.05-4.36v-.25a2.41,2.41,0,0,0-2.66-2.71,5.85,5.85,0,0,0-3.05.87l-.49-1.4a7.29,7.29,0,0,1,3.85-1c3.59,0,4.46,2.44,4.46,4.79v4.39a17.17,17.17,0,0,0,.19,2.81Zm-.31-6c-2.33-.05-5,.37-5,2.64a1.9,1.9,0,0,0,2,2,2.92,2.92,0,0,0,2.84-2,2.38,2.38,0,0,0,.12-.68Z"/><rect class="cls-1" x="237.73" y="129.01" width="2.13" height="17.2"/><rect class="cls-1" x="243.45" y="129.01" width="2.13" height="17.2"/><path class="cls-1" d="M251.55,131.19a1.32,1.32,0,0,1-2.64,0,1.3,1.3,0,0,1,1.33-1.33,1.27,1.27,0,0,1,1.31,1.33m-2.38,3.29h2.14v11.73h-2.14Z"/><path class="cls-1" d="M255.62,134.48l2.57,6.93c.26.77.56,1.7.75,2.4H259c.22-.7.46-1.6.75-2.45l2.32-6.88h2.26l-3.2,8.36c-1.53,4-2.57,6.08-4,7.34a5.78,5.78,0,0,1-2.62,1.38l-.53-1.79a5.7,5.7,0,0,0,1.87-1.05,6.43,6.43,0,0,0,1.79-2.37,1,1,0,0,0,0-1.06l-4.34-10.81Z"/><path class="cls-1" d="M272.66,146.21l-.17-1.48h-.08a4.35,4.35,0,0,1-3.58,1.74,3.34,3.34,0,0,1-3.59-3.36c0-2.84,2.52-4.39,7.05-4.36v-.25a2.41,2.41,0,0,0-2.66-2.71,5.85,5.85,0,0,0-3.05.87l-.49-1.4a7.29,7.29,0,0,1,3.85-1c3.59,0,4.46,2.44,4.46,4.79v4.39a16.06,16.06,0,0,0,.2,2.81Zm-.32-6c-2.32-.05-5,.37-5,2.64a1.89,1.89,0,0,0,2,2,2.92,2.92,0,0,0,2.83-2,2.38,2.38,0,0,0,.12-.68Z"/><path class="cls-1" d="M280,139.86H280c.29-.41.71-.92,1-1.33l3.44-4.05h2.57l-4.53,4.82,5.16,6.91h-2.59l-4-5.62L280,141.8v4.41h-2.1V129H280Z"/><path class="cls-1" d="M291.73,139.86h0c.29-.41.7-.92,1-1.33l3.44-4.05h2.57l-4.53,4.82,5.16,6.91h-2.59l-4.05-5.62-1.09,1.21v4.41h-2.1V129h2.1Z"/><path class="cls-1" d="M307.92,146.21l-.17-1.48h-.07a4.35,4.35,0,0,1-3.58,1.74,3.34,3.34,0,0,1-3.59-3.36c0-2.84,2.52-4.39,7.05-4.36v-.25a2.42,2.42,0,0,0-2.67-2.71,5.88,5.88,0,0,0-3.05.87l-.48-1.4a7.27,7.27,0,0,1,3.85-1c3.58,0,4.46,2.44,4.46,4.79v4.39a16.12,16.12,0,0,0,.19,2.81Zm-.31-6c-2.33-.05-5,.37-5,2.64a1.89,1.89,0,0,0,2,2,2.92,2.92,0,0,0,2.84-2,2.38,2.38,0,0,0,.12-.68Z"/><rect class="cls-1" x="313.11" y="129.01" width="2.13" height="17.2"/><path class="cls-1" d="M323.75,143.64a7.51,7.51,0,0,0,3.78,1.06c2.16,0,3.42-1.13,3.42-2.78s-.88-2.4-3.08-3.25c-2.66-.94-4.31-2.32-4.31-4.62,0-2.55,2.11-4.44,5.28-4.44a7.46,7.46,0,0,1,3.61.8l-.58,1.72a6.54,6.54,0,0,0-3.1-.77c-2.23,0-3.08,1.33-3.08,2.44,0,1.53,1,2.28,3.25,3.15,2.76,1.07,4.16,2.4,4.16,4.8s-1.86,4.7-5.71,4.7a8.44,8.44,0,0,1-4.17-1Z"/><path class="cls-1" d="M337.25,140.73a3.76,3.76,0,0,0,4,4.07,7.72,7.72,0,0,0,3.25-.6l.36,1.52a9.45,9.45,0,0,1-3.9.73c-3.61,0-5.76-2.38-5.76-5.91s2.08-6.32,5.5-6.32c3.82,0,4.84,3.36,4.84,5.52a9,9,0,0,1-.07,1Zm6.25-1.52c0-1.36-.56-3.47-2.95-3.47-2.16,0-3.1,2-3.27,3.47Z"/><path class="cls-1" d="M348.21,138.14c0-1.38,0-2.57-.1-3.66H350l.07,2.3h.09a3.53,3.53,0,0,1,3.25-2.56,2.32,2.32,0,0,1,.61.07v2a3.17,3.17,0,0,0-.73-.07,3,3,0,0,0-2.86,2.73,5.83,5.83,0,0,0-.1,1v6.25h-2.1Z"/><path class="cls-1" d="M357.56,134.48l2.3,6.59a30,30,0,0,1,.95,3h.07c.27-1,.61-1.93,1-3l2.27-6.59h2.23l-4.6,11.73h-2l-4.46-11.73Z"/><path class="cls-1" d="M370.77,131.19a1.26,1.26,0,0,1-1.35,1.31,1.27,1.27,0,0,1-1.29-1.31,1.3,1.3,0,0,1,1.33-1.33,1.27,1.27,0,0,1,1.31,1.33m-2.37,3.29h2.13v11.73H368.4Z"/><path class="cls-1" d="M382.43,145.77a7.9,7.9,0,0,1-3.37.68c-3.54,0-5.84-2.4-5.84-6a6,6,0,0,1,6.3-6.22,7.11,7.11,0,0,1,3,.6l-.48,1.65a5,5,0,0,0-2.47-.55c-2.69,0-4.14,2-4.14,4.43,0,2.71,1.74,4.38,4.07,4.38a6,6,0,0,0,2.61-.58Z"/><path class="cls-1" d="M386,140.73a3.76,3.76,0,0,0,4,4.07,7.72,7.72,0,0,0,3.25-.6l.36,1.52a9.49,9.49,0,0,1-3.9.73c-3.61,0-5.77-2.38-5.77-5.91s2.09-6.32,5.5-6.32c3.83,0,4.85,3.36,4.85,5.52a9,9,0,0,1-.07,1Zm6.25-1.52c0-1.36-.56-3.47-3-3.47-2.15,0-3.1,2-3.27,3.47Z"/><path class="cls-1" d="M413.55,145.67a10.45,10.45,0,0,1-4.32.78c-4.6,0-8.06-2.91-8.06-8.26,0-5.11,3.46-8.58,8.52-8.58a8.76,8.76,0,0,1,3.88.73l-.51,1.72a7.64,7.64,0,0,0-3.29-.68c-3.83,0-6.37,2.45-6.37,6.74,0,4,2.3,6.56,6.27,6.56a8.49,8.49,0,0,0,3.44-.68Z"/><path class="cls-1" d="M426.46,140.25c0,4.33-3,6.22-5.83,6.22-3.18,0-5.62-2.32-5.62-6,0-3.92,2.56-6.22,5.81-6.22s5.64,2.44,5.64,6m-9.3.12c0,2.57,1.48,4.5,3.56,4.5s3.56-1.91,3.56-4.55c0-2-1-4.51-3.51-4.51s-3.61,2.33-3.61,4.56"/><rect class="cls-1" x="428.48" y="138.87" width="5.98" height="1.57"/><path class="cls-1" d="M451.33,137.87c0,5.62-3.42,8.6-7.58,8.6s-7.34-3.34-7.34-8.28c0-5.19,3.22-8.58,7.58-8.58s7.34,3.42,7.34,8.26m-12.67.27c0,3.49,1.89,6.61,5.21,6.61s5.23-3.07,5.23-6.78c0-3.25-1.69-6.64-5.21-6.64s-5.23,3.22-5.23,6.81"/><path class="cls-1" d="M454,138.31c0-1.5,0-2.71-.09-3.83h1.91l.1,2H456a4.59,4.59,0,0,1,4.16-2.27c2.84,0,5,2.39,5,5.95,0,4.22-2.57,6.3-5.33,6.3a4.12,4.12,0,0,1-3.61-1.84h-.05V151H454Zm2.11,3.12a4.73,4.73,0,0,0,.1.88,3.29,3.29,0,0,0,3.2,2.49c2.25,0,3.56-1.84,3.56-4.53,0-2.35-1.24-4.36-3.49-4.36a3.4,3.4,0,0,0-3.22,2.64,3.17,3.17,0,0,0-.15.87Z"/><path class="cls-1" d="M469,140.73a3.76,3.76,0,0,0,4,4.07,7.72,7.72,0,0,0,3.25-.6l.36,1.52a9.45,9.45,0,0,1-3.9.73c-3.61,0-5.76-2.38-5.76-5.91s2.08-6.32,5.5-6.32c3.82,0,4.84,3.36,4.84,5.52a9,9,0,0,1-.07,1Zm6.25-1.52c0-1.36-.55-3.47-3-3.47-2.16,0-3.1,2-3.27,3.47Z"/><path class="cls-1" d="M479.94,138.14c0-1.38,0-2.57-.1-3.66h1.87l.07,2.3h.1a3.51,3.51,0,0,1,3.24-2.56,2.22,2.22,0,0,1,.61.07v2a3.17,3.17,0,0,0-.73-.07,3,3,0,0,0-2.86,2.73,7.13,7.13,0,0,0-.09,1v6.25h-2.11Z"/><path class="cls-1" d="M494.24,146.21l-.17-1.48H494a4.35,4.35,0,0,1-3.58,1.74,3.34,3.34,0,0,1-3.59-3.36c0-2.84,2.52-4.39,7.05-4.36v-.25a2.41,2.41,0,0,0-2.66-2.71,5.85,5.85,0,0,0-3,.87l-.49-1.4a7.27,7.27,0,0,1,3.85-1c3.59,0,4.46,2.44,4.46,4.79v4.39a17.17,17.17,0,0,0,.19,2.81Zm-.32-6c-2.33-.05-5,.37-5,2.64a1.89,1.89,0,0,0,2,2,2.92,2.92,0,0,0,2.83-2,2.38,2.38,0,0,0,.12-.68Z"/><path class="cls-1" d="M501.9,131.11v3.37H505v1.62H501.9v6.33c0,1.45.41,2.27,1.59,2.27a5,5,0,0,0,1.24-.14l.1,1.6a5.22,5.22,0,0,1-1.89.29,3,3,0,0,1-2.3-.9,4.32,4.32,0,0,1-.83-3.05v-6.4H498v-1.62h1.81v-2.81Z"/><path class="cls-1" d="M509.73,131.19a1.32,1.32,0,0,1-2.64,0,1.29,1.29,0,0,1,1.33-1.33,1.27,1.27,0,0,1,1.31,1.33m-2.38,3.29h2.13v11.73h-2.13Z"/><path class="cls-1" d="M513.85,134.48l2.3,6.59c.38,1.07.7,2,.94,3h.08c.26-1,.6-1.93,1-3l2.28-6.59h2.22l-4.6,11.73h-2l-4.46-11.73Z"/><path class="cls-1" d="M525.63,140.73a3.75,3.75,0,0,0,4,4.07,7.7,7.7,0,0,0,3.24-.6l.37,1.52a9.53,9.53,0,0,1-3.9.73c-3.61,0-5.77-2.38-5.77-5.91s2.08-6.32,5.5-6.32c3.83,0,4.85,3.36,4.85,5.52a6.73,6.73,0,0,1-.08,1Zm6.25-1.52c0-1.36-.56-3.47-3-3.47-2.16,0-3.1,2-3.27,3.47Z"/><path class="cls-1" d="M541.79,130.1a20,20,0,0,1,3.86-.34,6.72,6.72,0,0,1,4.48,1.19,3.41,3.41,0,0,1,1.35,2.88,3.87,3.87,0,0,1-2.76,3.58v.05a4.21,4.21,0,0,1,3.37,4.1,4.42,4.42,0,0,1-1.38,3.27c-1.14,1-3,1.52-5.65,1.52a26.2,26.2,0,0,1-3.27-.19Zm2.11,6.68h1.91c2.23,0,3.54-1.16,3.54-2.73,0-1.92-1.45-2.67-3.58-2.67a8.49,8.49,0,0,0-1.87.15Zm0,7.83a11.78,11.78,0,0,0,1.77.09c2.18,0,4.19-.79,4.19-3.17,0-2.23-1.91-3.15-4.21-3.15H543.9Z"/><path class="cls-1" d="M561.35,146.21l-.17-1.48h-.07a4.39,4.39,0,0,1-3.59,1.74,3.34,3.34,0,0,1-3.58-3.36c0-2.84,2.52-4.39,7-4.36v-.25a2.42,2.42,0,0,0-2.67-2.71,5.85,5.85,0,0,0-3.05.87l-.48-1.4a7.24,7.24,0,0,1,3.85-1c3.58,0,4.45,2.44,4.45,4.79v4.39a16.06,16.06,0,0,0,.2,2.81Zm-.32-6c-2.32-.05-5,.37-5,2.64a1.89,1.89,0,0,0,2,2,2.91,2.91,0,0,0,2.83-2,2.08,2.08,0,0,0,.12-.68Z"/><path class="cls-1" d="M566.54,137.65c0-1.21,0-2.2-.1-3.17h1.89l.12,1.94h0a4.32,4.32,0,0,1,3.88-2.2c1.62,0,4.14,1,4.14,5v7h-2.13v-6.76c0-1.89-.7-3.47-2.72-3.47a3.14,3.14,0,0,0-3,3.18v7.05h-2.13Z"/><path class="cls-1" d="M582.1,139.86h0c.29-.41.7-.92,1-1.33l3.44-4.05h2.57l-4.53,4.82,5.16,6.91h-2.6l-4-5.62-1.09,1.21v4.41H580V129h2.11Z"/><polygon class="cls-1" points="596.57 129.88 598.68 129.88 598.68 144.44 605.65 144.44 605.65 146.21 596.57 146.21 596.57 129.88"/><path class="cls-1" d="M610.41,131.11v3.37h3.05v1.62h-3.05v6.33c0,1.45.41,2.27,1.6,2.27a4.87,4.87,0,0,0,1.23-.14l.1,1.6a5.22,5.22,0,0,1-1.89.29,3,3,0,0,1-2.3-.9,4.32,4.32,0,0,1-.83-3.05v-6.4h-1.81v-1.62h1.81v-2.81Z"/><path class="cls-1" d="M625.84,129v14.17c0,1,0,2.23.1,3H624l-.09-2h0a4.33,4.33,0,0,1-4,2.3c-2.83,0-5-2.4-5-6,0-3.9,2.4-6.29,5.26-6.29a3.9,3.9,0,0,1,3.53,1.79h.05v-7Zm-2.13,10.24a3.38,3.38,0,0,0-.1-.89,3.12,3.12,0,0,0-3.07-2.47c-2.21,0-3.52,1.93-3.52,4.53,0,2.37,1.17,4.33,3.47,4.33a3.19,3.19,0,0,0,3.12-2.54,3.37,3.37,0,0,0,.1-.92Z"/><path class="cls-1" d="M628.64,145a1.43,1.43,0,0,1,1.45-1.53,1.53,1.53,0,1,1-1.45,1.53"/><path class="cls-1" d="M638.62,146.21V144.9l1.67-1.63c4-3.82,5.84-5.86,5.86-8.23A2.81,2.81,0,0,0,643,132a5.37,5.37,0,0,0-3.34,1.33l-.68-1.5a6.91,6.91,0,0,1,4.46-1.6,4.43,4.43,0,0,1,4.82,4.58c0,2.91-2.11,5.26-5.43,8.46l-1.26,1.16v.05h7.07v1.77Z"/><path class="cls-1" d="M651.06,146.21V144.9l1.67-1.63c4-3.82,5.84-5.86,5.86-8.23a2.81,2.81,0,0,0-3.13-3.08,5.39,5.39,0,0,0-3.34,1.33l-.68-1.5a6.91,6.91,0,0,1,4.46-1.6,4.43,4.43,0,0,1,4.82,4.58c0,2.91-2.11,5.26-5.43,8.46L654,144.39v.05h7.08v1.77Z"/><path class="cls-1" d="M664,143.76a7.07,7.07,0,0,0,3.48,1c2.74,0,3.59-1.74,3.57-3.05,0-2.2-2-3.15-4.07-3.15h-1.19V137H667c1.55,0,3.51-.8,3.51-2.66,0-1.26-.8-2.38-2.76-2.38a5.75,5.75,0,0,0-3.15,1.05l-.56-1.55a7.43,7.43,0,0,1,4.12-1.22c3.1,0,4.5,1.85,4.5,3.76a3.91,3.91,0,0,1-2.9,3.71v0a4.1,4.1,0,0,1,3.51,4.05c0,2.52-2,4.72-5.74,4.72a8,8,0,0,1-4.09-1.06Z"/><path class="cls-1" d="M675.92,146.21V144.9l1.67-1.63c4-3.82,5.84-5.86,5.86-8.23a2.81,2.81,0,0,0-3.12-3.08,5.37,5.37,0,0,0-3.34,1.33l-.68-1.5a6.91,6.91,0,0,1,4.46-1.6,4.43,4.43,0,0,1,4.82,4.58c0,2.91-2.11,5.26-5.43,8.46l-1.26,1.16v.05H686v1.77Z"/></svg>