<svg id="Layer_1" data-name="Layer 1" xmlns="http://www.w3.org/2000/svg" viewBox="0 0 396.74 396.74"><defs><style>.cls-1{fill:#fff;}</style></defs><path class="cls-1" d="M382,190.93l-22.31-.07A161.49,161.49,0,0,0,206.37,37.08l-.07-21.84a8,8,0,0,0-16,.06l0,14.08a8.11,8.11,0,0,0,0,.86l0,6.84A161.5,161.5,0,0,0,37.05,190.86l-22.32.07a8,8,0,0,0,.06,16l14.07-.05a8.3,8.3,0,0,0,.87.05l7.38,0A161.67,161.67,0,0,0,190.32,359.65l0,7a8.49,8.49,0,0,0,0,.88l0,15a8,8,0,0,0,16,.06l.07-22.84A161.49,161.49,0,0,0,359.64,206.91l6.45,0a8.65,8.65,0,0,0,.88-.05l15,.05a8,8,0,0,0,.06-16Zm-175.61,151,0-11.18-16-.05,0,11.23A143.79,143.79,0,0,1,54.83,206.85l10.79,0-.05-16-10.79,0a144,144,0,0,1,135.6-136l0,11.33,16,0,0-11.28A143.8,143.8,0,0,1,342,190.85l-11.73,0-.05,16,11.72,0A143.79,143.79,0,0,1,206.38,341.93Z"/><path class="cls-1" d="M198.37,78.47a119.9,119.9,0,1,0,119.9,119.9A119.9,119.9,0,0,0,198.37,78.47Zm0,219.82a99.92,99.92,0,1,1,99.92-99.92A99.91,99.91,0,0,1,198.37,298.29Z"/><path class="cls-1" d="M188.38,158.4h20a10,10,0,0,1,10,10h20a30,30,0,0,0-30-30v-20h-20v20a30,30,0,0,0-30,30v10a30,30,0,0,0,30,30h20a10,10,0,0,1,10,10v10a10,10,0,0,1-10,10h-20a10,10,0,0,1-10-10h-20a30,30,0,0,0,30,30v20h20v-20a30,30,0,0,0,30-30v-10a30,30,0,0,0-30-30h-20a10,10,0,0,1-10-10v-10A10,10,0,0,1,188.38,158.4Z"/></svg>