<svg id="Layer_1" data-name="Layer 1" xmlns="http://www.w3.org/2000/svg" viewBox="0 0 595.28 595.28"><defs><style>.cls-1{fill:#ed1c24;}.cls-2{fill:#fff;}.cls-3{fill:#a8a8a8;}.cls-4{fill:none;stroke:#000;stroke-miterlimit:10;stroke-width:16px;}</style></defs><circle class="cls-1" cx="482.84" cy="279.65" r="77.18"/><path d="M474.13,465.66c-30.29,29.9-67.17,43.22-109.55,39-75.57-7.6-130.29-75.79-122-150.19C251.93,270.51,334.27,216,410.87,236a7.36,7.36,0,0,0,8.82-4.87l.05-.14a7.34,7.34,0,0,0-5-9.35c-45.64-12.71-111.75-2-155.25,52.16A152.2,152.2,0,0,0,450.75,502.87c60.55-32.79,82.67-95.11,79.18-140.54a7.33,7.33,0,0,0-8.19-6.67l-.74.08a7.41,7.41,0,0,0-6.51,7.57C515.47,403,502.71,437.45,474.13,465.66Z"/><path d="M405.67,388.78c-4.91-3.33-10.51-5.67-15.88-8.29-6.86-3.35-14-6.22-20.67-9.88-5.76-3.15-9.4-8-7.92-15.19s6.63-10.46,13.3-11.74c10.68-2,20.83.22,30.74,4.12,1.78.7,3.55,1.44,5.63,2.3,2-6.8,3.8-13,5.67-19.41a56.19,56.19,0,0,0-25-6.9c-4.07-.18-5.09-1.65-4.88-5.39.11-2,.14-4,.14-6a8.86,8.86,0,0,0-8.84-8.87h0a8.84,8.84,0,0,0-8.83,8.81c0,2.23,0,4.42.16,6.6.25,3.92-.84,5.54-4.93,6.83-5.92,1.86-12,4.44-16.87,8.19a33.54,33.54,0,0,0,.87,54c5.34,3.85,11.54,6.54,17.48,9.49,7.12,3.53,14.63,6.33,21.5,10.28a15.16,15.16,0,0,1,7.86,16c-1.08,7.48-6,12.14-13,13.47a54.83,54.83,0,0,1-19.23.57c-8.24-1.43-16.16-4.68-24.53-7.25-.57,1.86-1.36,4.38-2.09,6.91-4,13.92-4.08,14.11,10.13,18,6.83,1.88,13.91,2.87,21.46,4.37v11a8.83,8.83,0,0,0,8.83,8.83h0a8.83,8.83,0,0,0,8.83-8.83v-12c6.5-2.67,12.69-4.43,18.05-7.58A36.64,36.64,0,0,0,405.67,388.78Z"/><path class="cls-2" d="M513,245l-.19.2a6.42,6.42,0,0,0-.29,8.22c10.23,12.88,12.69,27.05,5.29,42.68-5.69,12-15.62,18.84-29.12,20.36L492,314.1a6.43,6.43,0,0,0,1.58-8.79l-.12-.18a6.44,6.44,0,0,0-8.93-1.77l-25.2,16.88,16.88,25.13a6.43,6.43,0,0,0,8.95,1.74l.11-.07a6.43,6.43,0,0,0,1.8-8.8l-4.32-6.74c32-6.63,47.5-19.89,51.52-43.7,2.6-15.37-2.57-33.24-11.77-42.94A6.42,6.42,0,0,0,513,245Z"/><path class="cls-2" d="M448.22,260.94c6.16-11.77,19.84-21,30-20l-4.1,2.95a6.44,6.44,0,0,0-1.53,8.89l.09.13a6.45,6.45,0,0,0,8.95,1.63l24.93-17.19-17.2-24.91a6.43,6.43,0,0,0-9-1.59l-.12.08a6.43,6.43,0,0,0-1.62,8.82c1.45,2.19,2.9,4.35,4.41,6.61-27.09,2.61-45.14,15.74-50.95,42.35-3.6,16.48.49,31,11.08,43.6a6.53,6.53,0,0,0,9.87.11l.08-.1a6.55,6.55,0,0,0,.36-8.2C442.66,289.34,441,274.82,448.22,260.94Z"/><path d="M459.06,112.76a8.56,8.56,0,1,0-8.56-8.54A8.64,8.64,0,0,0,459.06,112.76Z"/><path d="M426.72,112.78a8.56,8.56,0,1,0-8.58-8.52A8.68,8.68,0,0,0,426.72,112.78Z"/><path d="M394,112.76a8.55,8.55,0,1,0-8.21-8.86A8.57,8.57,0,0,0,394,112.76Z"/><path d="M491.44,112.76a8.55,8.55,0,1,0-8.6-8.74A8.62,8.62,0,0,0,491.44,112.76Z"/><path d="M362,95.66a8.56,8.56,0,0,0,0,17.11,8.56,8.56,0,0,0,0-17.11Z"/><path d="M329.5,112.77a8.55,8.55,0,1,0-8.42-8.66A8.62,8.62,0,0,0,329.5,112.77Z"/><path d="M523.74,112.77a8.7,8.7,0,0,0,8.57-8.56,8.54,8.54,0,0,0-17.07,0A8.6,8.6,0,0,0,523.74,112.77Z"/><path d="M297.4,95.65a8.56,8.56,0,1,0,8.33,8.71A8.62,8.62,0,0,0,297.4,95.65Z"/><path d="M264.9,112.78a8.6,8.6,0,0,0,8.5-8.56c0-4.82-3.71-8.43-8.75-8.52-4.4-.08-8.28,3.92-8.26,8.52A8.6,8.6,0,0,0,264.9,112.78Z"/><path d="M523.7,144a8.51,8.51,0,1,0-8.47-8.32A8.48,8.48,0,0,0,523.7,144Z"/><path d="M523.7,174.11a8.51,8.51,0,1,0-8.47-8.31A8.47,8.47,0,0,0,523.7,174.11Z"/><path d="M523.7,204.25a8.51,8.51,0,1,0-8.47-8.32A8.48,8.48,0,0,0,523.7,204.25Z"/><path d="M155.67,503.92a8.55,8.55,0,1,0,8.56,8.53A8.64,8.64,0,0,0,155.67,503.92Z"/><path d="M188,503.9a8.55,8.55,0,1,0,8.58,8.52A8.68,8.68,0,0,0,188,503.9Z"/><path d="M220.73,503.92a8.55,8.55,0,0,0-.65,17.09,8.55,8.55,0,0,0,.65-17.09Z"/><path d="M123.29,503.92a8.55,8.55,0,1,0,8.59,8.73A8.62,8.62,0,0,0,123.29,503.92Z"/><path d="M252.76,521a8.56,8.56,0,0,0,0-17.11,8.56,8.56,0,0,0,0,17.11Z"/><path d="M285.22,503.91a8.55,8.55,0,1,0,8.42,8.66A8.61,8.61,0,0,0,285.22,503.91Z"/><path d="M91,503.91a8.7,8.7,0,0,0-8.57,8.56,8.54,8.54,0,0,0,17.07,0A8.6,8.6,0,0,0,91,503.91Z"/><path d="M317.32,521a8.56,8.56,0,1,0-8.32-8.7A8.52,8.52,0,0,0,317.32,521Z"/><path d="M91,472.7A8.51,8.51,0,1,0,99.49,481,8.46,8.46,0,0,0,91,472.7Z"/><path d="M91,442.56a8.51,8.51,0,1,0,8.46,8.32A8.47,8.47,0,0,0,91,442.56Z"/><path d="M91,412.43a8.51,8.51,0,1,0,8.46,8.31A8.45,8.45,0,0,0,91,412.43Z"/><path d="M232.54,95.82a8.34,8.34,0,0,0-8.5,8.49,8.5,8.5,0,1,0,17-.23A8.32,8.32,0,0,0,232.54,95.82Z"/><rect class="cls-3" x="61.54" y="87.13" width="235.06" height="311.61" rx="36.11"/><rect class="cls-4" x="61.54" y="87.13" width="235.06" height="311.61" rx="36.11"/><path class="cls-1" d="M254.75,139.79H101.67v69.87H254.75Zm-93.5,47.76a8.49,8.49,0,1,1-17,0c-.07-3.94,0-7.89,0-11.83s0-7.74,0-11.61c0-5.13,3.58-8.77,8.43-8.78a8.44,8.44,0,0,1,8.55,8.73Q161.31,175.83,161.25,187.55Zm27.28-17.25V176h0c0,3.8,0,7.59,0,11.38,0,5.19-3.72,8.91-8.65,8.87a8.44,8.44,0,0,1-8.37-8.69c-.07-7.81-.09-15.63,0-23.44.06-5.13,3.71-8.77,8.53-8.75s8.48,3.84,8.52,9C188.55,166.36,188.53,168.33,188.53,170.3Zm27.26,16.81c0,5.24-3.61,9.08-8.43,9.15s-8.6-3.76-8.66-9.13c0-3.87,0-7.74,0-11.61h0c0-3.72,0-7.44,0-11.15.06-5.27,3.62-9,8.53-9s8.53,3.71,8.56,9Q215.86,175.74,215.79,187.11Zm27.22.19c-.06,5.16-3.74,9-8.56,9s-8.49-3.8-8.53-9q-.07-11.36,0-22.71c0-5.45,3.56-9.14,8.59-9.16s8.45,3.81,8.5,9.22c0,1.89,0,3.78,0,5.67v5.68h0C243,179.73,243.06,183.51,243,187.3Z"/><path d="M272.11,358.8q-.06-14.15-.08-28.28-.06-42.42,0-84.84V132.33c0-6.57-3.23-9.83-9.74-9.83H95c-.83,0-1.67,0-2.5,0a8.43,8.43,0,0,0-7.93,7.68c-.12,1.36-.1,2.73-.1,4.09q0,94.23,0,188.46,0,18.32,0,36.64c0,4.47,2,7.7,5.74,8.85a16.62,16.62,0,0,0,4.93.59q44.83.06,89.67,0c25.72,0,51.44-.05,77.16,0C268,368.93,272.14,365.21,272.11,358.8Zm-170.44-219H254.75v69.87H101.67Zm0,134.94h40.63v30.38H101.69Zm40.65,76.78H101.86V322.38h40.48Zm0-94.12H101.78V227.07h40.59Zm17,.08s0,0,0,0Zm.1-30.41c1.11-.05,1.92-.12,2.72-.12,7,0,14,0,20.93,0,1.51,0,3-.61,4.53-.67.95,0,1.91.61,2.88.67,2,.11,4.08,0,6.33,0v30.54H159.44Zm.2,47.75h37.2v30.24h-37.2Zm37.25,76.65H159.66v-29h37.23Zm57.9.06H214.22V274.76h40.57Zm.05-94.18H214.25V227.1h40.59Z"/><path class="cls-2" d="M243,175.94v-5.68c0-1.89,0-3.78,0-5.67,0-5.41-3.59-9.24-8.5-9.22s-8.55,3.71-8.59,9.16q-.09,11.35,0,22.71c0,5.22,3.68,9,8.53,9s8.5-3.8,8.56-9c.05-3.79,0-7.57,0-11.36Z"/><path class="cls-2" d="M180,155.36c-4.82,0-8.47,3.62-8.53,8.75-.08,7.81-.06,15.63,0,23.44a8.44,8.44,0,0,0,8.37,8.69c4.93,0,8.6-3.68,8.65-8.87.05-3.79,0-7.58,0-11.38h0V170.3c0-2,0-3.94,0-5.91C188.49,159.2,184.88,155.39,180,155.36Z"/><path class="cls-2" d="M207.22,155.38c-4.91,0-8.47,3.72-8.53,9-.05,3.71,0,7.43,0,11.15h0c0,3.87,0,7.74,0,11.61.06,5.37,3.72,9.2,8.66,9.13s8.4-3.91,8.43-9.15q.06-11.38,0-22.76C215.75,159.09,212.15,155.38,207.22,155.38Z"/><path class="cls-2" d="M152.7,155.38c-4.85,0-8.38,3.65-8.43,8.78,0,3.87,0,7.74,0,11.61s-.05,7.89,0,11.83a8.49,8.49,0,1,0,17,0q.08-11.72,0-23.44A8.44,8.44,0,0,0,152.7,155.38Z"/><path d="M225.92,323.65c.1,5.16,3.85,9,8.68,8.88s8.36-3.8,8.4-8.89q.1-11.47,0-22.95c0-5.25-3.64-9.05-8.44-9.11s-8.59,3.76-8.67,9.13l0,2.83c0,2.84,0,5.68,0,8.52C225.91,315.93,225.86,319.79,225.92,323.65Z"/></svg>