<svg id="Layer_1" data-name="Layer 1" xmlns="http://www.w3.org/2000/svg" viewBox="0 0 255.12 255.12"><defs><style>.cls-1{fill:#8e8e8e;}</style></defs><path class="cls-1" d="M230.91,166.15,222.53,169,194.91,87.23a3.81,3.81,0,0,0-4.83-2.39l-19.93,6.73L158.89,58.25h0L146.42,21.32a3.82,3.82,0,0,0-4.83-2.39L76.93,40.78,67.89,14A13.1,13.1,0,0,0,51.3,5.82L14.68,18.19A13.09,13.09,0,0,0,23.07,43l24.21-8.18L107.6,213.34c-.24.07-.48.13-.72.21a18.71,18.71,0,1,0,24.3,13.93L239.29,191a13.09,13.09,0,0,0-8.38-24.81Zm-30-37.41L158.6,143a3.81,3.81,0,0,0,1.22,7.42,3.77,3.77,0,0,0,1.22-.21L203.33,136l12,35.47L130.73,200l-26.41-78.15,13.75-4.64,70.84-23.94ZM79.37,48l61-20.63,10,29.71L119.93,67.4a3.81,3.81,0,0,0,1.22,7.41,3.67,3.67,0,0,0,1.22-.2L152.9,64.3l10,29.71-44.4,15-16.65,5.63L83.36,59.81Zm37.05,193.79a11.1,11.1,0,0,1-7.1-21,10.94,10.94,0,0,1,3.54-.58,11.11,11.11,0,0,1,10.52,7.54h0A11.11,11.11,0,0,1,116.42,241.79Zm120.43-58L128.14,220.47a18.75,18.75,0,0,0-12.7-7.71l-62.16-184a3.8,3.8,0,0,0-4.83-2.39l-27.82,9.4A5.48,5.48,0,0,1,17.12,25.4L53.74,13a5.49,5.49,0,0,1,6.94,3.44L70.93,46.82h0l25,73.85,28.84,85.37a4.51,4.51,0,0,0,.29.63c0,.06.07.11.1.16s.19.28.29.41l.14.16a3.92,3.92,0,0,0,.37.34s.09.09.15.13a3.77,3.77,0,0,0,.58.36h0a4.49,4.49,0,0,0,.61.23l.21.05.47.08h.22l.16,0,.33,0,.21,0a3.51,3.51,0,0,0,.68-.16l103.78-35.06a5.47,5.47,0,0,1,3.51,10.37Z"/></svg>