<svg id="Layer_1" data-name="Layer 1" xmlns="http://www.w3.org/2000/svg" viewBox="0 0 595.28 595.28"><defs><style>.cls-1{fill:#fff;}</style></defs><path class="cls-1" d="M385.44,426.37H363.63a10.9,10.9,0,0,1-10.9-10.9H330.92a32.72,32.72,0,0,0,32.71,32.71V470h21.81v-21.8a32.71,32.71,0,0,0,32.7-32.71v-10.9a32.7,32.7,0,0,0-32.7-32.71H363.63a10.9,10.9,0,0,1-10.9-10.9V350.05a10.9,10.9,0,0,1,10.9-10.9h21.81a10.9,10.9,0,0,1,10.9,10.9h21.8a32.7,32.7,0,0,0-32.7-32.7V295.54H363.63v21.81a32.71,32.71,0,0,0-32.71,32.7V361a32.71,32.71,0,0,0,32.71,32.7h21.81a10.9,10.9,0,0,1,10.9,10.91v10.9a10.9,10.9,0,0,1-10.9,10.9Z"/><path class="cls-1" d="M482.84,350.93a71,71,0,1,1,71-71A71.08,71.08,0,0,1,482.84,350.93Zm0-128.67a57.67,57.67,0,1,0,57.67,57.67A57.73,57.73,0,0,0,482.84,222.26Z"/><path class="cls-1" d="M512,253.74l-.14.16a4.84,4.84,0,0,0-.22,6.2c7.72,9.72,9.58,20.4,4,32.2-4.29,9.06-11.78,14.21-22,15.36l2.47-1.79a4.86,4.86,0,0,0,1.19-6.63l-.09-.14a4.85,4.85,0,0,0-6.74-1.33l-19,12.73c4.35,6.48,8.52,12.69,12.74,19a4.85,4.85,0,0,0,6.75,1.32l.08-.06a4.86,4.86,0,0,0,1.36-6.64L489.1,319c24.15-5,35.84-15,38.87-33,2-11.59-1.94-25.08-8.88-32.4A4.85,4.85,0,0,0,512,253.74Z"/><path class="cls-1" d="M452.16,265.75c4.65-8.87,15-15.87,22.64-15.08l-3.09,2.22a4.85,4.85,0,0,0-1.16,6.71l.07.1a4.86,4.86,0,0,0,6.75,1.23l18.81-13-13-18.8a4.86,4.86,0,0,0-6.8-1.2l-.09.07a4.84,4.84,0,0,0-1.23,6.65l3.33,5c-20.44,2-34.06,11.87-38.44,32-2.71,12.44.37,23.41,8.36,32.9a4.92,4.92,0,0,0,7.44.08l.07-.07a4.94,4.94,0,0,0,.27-6.19C448,287.18,446.69,276.23,452.16,265.75Z"/><path class="cls-1" d="M459.06,112.76a8.56,8.56,0,1,0-8.56-8.54A8.64,8.64,0,0,0,459.06,112.76Z"/><path class="cls-1" d="M426.72,112.78a8.56,8.56,0,1,0-8.58-8.52A8.68,8.68,0,0,0,426.72,112.78Z"/><path class="cls-1" d="M394,112.76a8.55,8.55,0,1,0-8.21-8.86A8.57,8.57,0,0,0,394,112.76Z"/><path class="cls-1" d="M491.44,112.76a8.55,8.55,0,1,0-8.6-8.74A8.62,8.62,0,0,0,491.44,112.76Z"/><path class="cls-1" d="M362,95.66a8.56,8.56,0,0,0,0,17.11,8.56,8.56,0,0,0,0-17.11Z"/><path class="cls-1" d="M329.5,112.77a8.55,8.55,0,1,0-8.42-8.66A8.62,8.62,0,0,0,329.5,112.77Z"/><path class="cls-1" d="M523.74,112.77a8.7,8.7,0,0,0,8.57-8.56,8.54,8.54,0,0,0-17.07,0A8.6,8.6,0,0,0,523.74,112.77Z"/><path class="cls-1" d="M297.4,95.65a8.56,8.56,0,1,0,8.33,8.71A8.62,8.62,0,0,0,297.4,95.65Z"/><path class="cls-1" d="M523.7,144a8.51,8.51,0,1,0-8.47-8.32A8.48,8.48,0,0,0,523.7,144Z"/><path class="cls-1" d="M523.7,174.11a8.51,8.51,0,1,0-8.47-8.31A8.47,8.47,0,0,0,523.7,174.11Z"/><path class="cls-1" d="M523.7,204.25a8.51,8.51,0,1,0-8.47-8.32A8.48,8.48,0,0,0,523.7,204.25Z"/><path class="cls-1" d="M155.67,503.92a8.55,8.55,0,1,0,8.56,8.53A8.64,8.64,0,0,0,155.67,503.92Z"/><path class="cls-1" d="M188,503.9a8.55,8.55,0,1,0,8.58,8.52A8.68,8.68,0,0,0,188,503.9Z"/><path class="cls-1" d="M220.73,503.92a8.55,8.55,0,0,0-.65,17.09,8.55,8.55,0,0,0,.65-17.09Z"/><path class="cls-1" d="M123.29,503.92a8.55,8.55,0,1,0,8.59,8.73A8.62,8.62,0,0,0,123.29,503.92Z"/><path class="cls-1" d="M252.76,521a8.56,8.56,0,0,0,0-17.11,8.56,8.56,0,0,0,0,17.11Z"/><path class="cls-1" d="M285.22,503.91a8.55,8.55,0,1,0,8.42,8.66A8.61,8.61,0,0,0,285.22,503.91Z"/><path class="cls-1" d="M91,503.91a8.7,8.7,0,0,0-8.57,8.56,8.54,8.54,0,0,0,17.07,0A8.6,8.6,0,0,0,91,503.91Z"/><path class="cls-1" d="M317.32,521a8.56,8.56,0,1,0-8.32-8.7A8.52,8.52,0,0,0,317.32,521Z"/><path class="cls-1" d="M91,472.7A8.51,8.51,0,1,0,99.49,481,8.46,8.46,0,0,0,91,472.7Z"/><path class="cls-1" d="M91,442.56a8.51,8.51,0,1,0,8.46,8.32A8.47,8.47,0,0,0,91,442.56Z"/><path class="cls-1" d="M91,412.43a8.51,8.51,0,1,0,8.46,8.31A8.45,8.45,0,0,0,91,412.43Z"/><path class="cls-1" d="M260.48,406.74H97.65a44.16,44.16,0,0,1-44.11-44.11V123.25A44.17,44.17,0,0,1,97.65,79.13H260.48a44.17,44.17,0,0,1,44.12,44.12V362.63A44.17,44.17,0,0,1,260.48,406.74ZM97.65,95.13a28.15,28.15,0,0,0-28.11,28.12V362.63a28.14,28.14,0,0,0,28.11,28.11H260.48a28.15,28.15,0,0,0,28.12-28.11V123.25a28.16,28.16,0,0,0-28.12-28.12Z"/><path class="cls-1" d="M272.11,358.8q-.06-14.15-.08-28.28-.06-42.42,0-84.84V132.33c0-6.57-3.23-9.83-9.74-9.83H95c-.83,0-1.67,0-2.5,0a8.43,8.43,0,0,0-7.93,7.68c-.12,1.36-.1,2.73-.1,4.09q0,94.23,0,188.46,0,18.32,0,36.64c0,4.47,2,7.7,5.74,8.85a16.62,16.62,0,0,0,4.93.59q44.83.06,89.67,0c25.72,0,51.44-.05,77.16,0C268,368.93,272.14,365.21,272.11,358.8Zm-170.44-219H254.75v69.87H101.67Zm0,134.94h40.63v30.38H101.69Zm40.65,76.78H101.86V322.38h40.48Zm0-94.12H101.78V227.07h40.59Zm17,.08s0,0,0,0Zm.1-30.41c1.11-.05,1.92-.12,2.72-.12,7,0,14,0,20.93,0,1.51,0,3-.61,4.53-.67.95,0,1.91.61,2.88.67,2,.11,4.08,0,6.33,0v30.54H159.44Zm.2,47.75h37.2v30.24h-37.2Zm37.25,76.65H159.66v-29h37.23Zm57.9.06H214.22V274.76h40.57Zm.05-94.18H214.25V227.1h40.59Z"/><path class="cls-1" d="M243,175.94v-5.68c0-1.89,0-3.78,0-5.67,0-5.41-3.59-9.24-8.5-9.22s-8.55,3.71-8.59,9.16q-.09,11.35,0,22.71c0,5.22,3.68,9,8.53,9s8.5-3.8,8.56-9c.05-3.79,0-7.57,0-11.36Z"/><path class="cls-1" d="M180,155.36c-4.82,0-8.47,3.62-8.53,8.75-.08,7.81-.06,15.63,0,23.44a8.44,8.44,0,0,0,8.37,8.69c4.93,0,8.6-3.68,8.65-8.87.05-3.79,0-7.58,0-11.38h0V170.3c0-2,0-3.94,0-5.91C188.49,159.2,184.88,155.39,180,155.36Z"/><path class="cls-1" d="M207.22,155.38c-4.91,0-8.47,3.72-8.53,9-.05,3.71,0,7.43,0,11.15h0c0,3.87,0,7.74,0,11.61.06,5.37,3.72,9.2,8.66,9.13s8.4-3.91,8.43-9.15q.06-11.38,0-22.76C215.75,159.09,212.15,155.38,207.22,155.38Z"/><path class="cls-1" d="M152.7,155.38c-4.85,0-8.38,3.65-8.43,8.78,0,3.87,0,7.74,0,11.61s-.05,7.89,0,11.83a8.49,8.49,0,1,0,17,0q.08-11.72,0-23.44A8.44,8.44,0,0,0,152.7,155.38Z"/><path class="cls-1" d="M225.92,323.65c.1,5.16,3.85,9,8.68,8.88s8.36-3.8,8.4-8.89q.1-11.47,0-22.95c0-5.25-3.64-9.05-8.44-9.11s-8.59,3.76-8.67,9.13l0,2.83c0,2.84,0,5.68,0,8.52C225.91,315.93,225.86,319.79,225.92,323.65Z"/><path class="cls-1" d="M228.35,396.13a152.3,152.3,0,0,0,222.4,106.74c60.55-32.79,82.67-95.11,79.18-140.54a7.33,7.33,0,0,0-8.19-6.67l-.74.08a7.41,7.41,0,0,0-6.51,7.57c1,39.65-11.78,74.14-40.36,102.35-30.29,29.9-67.17,43.22-109.55,39-60.14-6-107.08-50.48-119.56-105.88Z"/><path class="cls-1" d="M297.22,259.33c31.94-23.86,73.58-33.79,113.65-23.35a7.36,7.36,0,0,0,8.82-4.87l.05-.14a7.34,7.34,0,0,0-5-9.35c-34-9.46-79.29-5.93-118.18,18.82Z"/></svg>